<svg xmlns="http://www.w3.org/2000/svg" width="16" height="16">
    <g fill="#241f31">
        <path d="M4 1C2.355 1 1 2.355 1 4v8c0 1.645 1.355 3 3 3h8c1.645 0 3-1.355 3-3V4c0-1.645-1.355-3-3-3zm0 2h8c.57 0 1 .43 1 1v8c0 .57-.43 1-1 1H4c-.57 0-1-.43-1-1V4c0-.57.43-1 1-1zm0 0"/>
        <path d="M7 10.5a1.5 1.5 0 1 1-3 0 1.5 1.5 0 0 1 3 0zM6 7c0 .55-.45 1-1 1s-1-.45-1-1 .45-1 1-1 1 .45 1 1zm4 4c0 .55-.45 1-1 1s-1-.45-1-1 .45-1 1-1 1 .45 1 1zM9 8c0 .55-.45 1-1 1s-1-.45-1-1 .45-1 1-1 1 .45 1 1zM5 4.5a.499.499 0 1 1-1 0 .499.499 0 1 1 1 0zm7 7a.499.499 0 1 1-1 0 .499.499 0 1 1 1 0zM8 5c0 .55-.45 1-1 1s-1-.45-1-1 .45-1 1-1 1 .45 1 1zm4 4c0 .55-.45 1-1 1s-1-.45-1-1 .45-1 1-1 1 .45 1 1zm0-3.5a1.5 1.5 0 1 1-3 0 1.5 1.5 0 0 1 3 0zm0 0"/>
    </g>
</svg>
