<svg xmlns="http://www.w3.org/2000/svg" width="16" height="16">
    <path fill="#241f31" d="M4 1C2.355 1 1 2.355 1 4v8c0 1.645 1.355 3 3 3h8c1.645 0 3-1.355 3-3V4c0-1.645-1.355-3-3-3zm0 2h8c.57 0 1 .43 1 1v8c0 .57-.43 1-1 1H4c-.57 0-1-.43-1-1V4c0-.57.43-1 1-1zm.5 1a.499.499 0 1 0 0 1 .499.499 0 1 0 0-1zM7 4c-.55 0-1 .45-1 1s.45 1 1 1 1-.45 1-1-.45-1-1-1zm3.5 0a1.5 1.5 0 1 0 0 3 1.5 1.5 0 0 0 0-3zM5 6c-.55 0-1 .45-1 1s.45 1 1 1 1-.45 1-1-.45-1-1-1zm3 1c-.55 0-1 .45-1 1s.45 1 1 1 1-.45 1-1-.45-1-1-1zm3 1c-.55 0-1 .45-1 1s.45 1 1 1 1-.45 1-1-.45-1-1-1zM5.5 9a1.5 1.5 0 1 0 0 3 1.5 1.5 0 0 0 0-3zM9 10c-.55 0-1 .45-1 1s.45 1 1 1 1-.45 1-1-.45-1-1-1zm2.5 1a.499.499 0 1 0 0 1 .499.499 0 1 0 0-1zm0 0"/>
</svg>
