<svg xmlns="http://www.w3.org/2000/svg" width="16" height="16">
    <path fill="#241f31" d="M6.727 14.797a.752.752 0 0 1-1.024-.274.756.756 0 0 1 .274-1.027.75.75 0 1 1 .75 1.3zm-1.5-2.598a.752.752 0 0 1-1.024-.273.756.756 0 0 1 .274-1.028.75.75 0 1 1 .75 1.3zm-1.5-2.597A.75.75 0 1 1 2.98 8.3a.75.75 0 0 1 .746 1.3zm-1.5-2.598a.75.75 0 1 1-.746-1.301.75.75 0 0 1 .746 1.3zm7.222 6.508a.996.996 0 0 1-1.363-.364.999.999 0 1 1 1.73-1 .994.994 0 0 1-.367 1.364zm-1.5-2.598a.996.996 0 0 1-1.363-.363.999.999 0 1 1 1.73-1 .994.994 0 0 1-.367 1.363zm-1.5-2.598a.994.994 0 0 1-1.363-.367.996.996 0 0 1 .363-1.363.999.999 0 1 1 1 1.73zM4.95 5.72a.994.994 0 0 1-1.363-.367.996.996 0 0 1 .363-1.364.999.999 0 1 1 1 1.73zm7.227 6.511a1.255 1.255 0 0 1-1.711-.457 1.248 1.248 0 0 1 .46-1.707 1.248 1.248 0 0 1 1.708.457c.344.598.14 1.36-.457 1.707zm-1.5-2.597a1.255 1.255 0 0 1-1.711-.457 1.253 1.253 0 0 1 .46-1.711 1.251 1.251 0 0 1 1.25 2.168zm-1.5-2.598a1.256 1.256 0 0 1-1.711-.46 1.251 1.251 0 1 1 1.71.46zm-1.5-2.601a1.25 1.25 0 1 1-1.25-2.164 1.25 1.25 0 0 1 1.25 2.164zm7.222 6.511a1.503 1.503 0 0 1-2.05-.547 1.501 1.501 0 0 1 .55-2.05 1.5 1.5 0 0 1 1.5 2.598zm-1.5-2.597a1.503 1.503 0 0 1-2.05-.547 1.501 1.501 0 0 1 .55-2.051 1.5 1.5 0 0 1 1.5 2.598zm-1.5-2.598a1.501 1.501 0 0 1-2.05-.55 1.5 1.5 0 1 1 2.05.55zm-1.5-2.598a1.501 1.501 0 0 1-2.05-.55 1.5 1.5 0 1 1 2.05.55zm0 0"/>
</svg>
