<?xml version="1.0" encoding="UTF-8" standalone="no"?>
<!-- Created with Inkscape (http://www.inkscape.org/) -->

<svg
   inkscape:export-ydpi="96"
   inkscape:export-xdpi="96"
   inkscape:export-filename="Template.png"
   width="192"
   height="152"
   id="svg11300"
   sodipodi:version="0.32"
   inkscape:version="1.2.2 (b0a8486541, 2022-12-01)"
   sodipodi:docname="com.github.tfuxu.halftone.Source-proto1.svg"
   inkscape:output_extension="org.inkscape.output.svg.inkscape"
   version="1.0"
   style="display:inline;enable-background:new"
   viewBox="0 0 192 152"
   xmlns:inkscape="http://www.inkscape.org/namespaces/inkscape"
   xmlns:sodipodi="http://sodipodi.sourceforge.net/DTD/sodipodi-0.dtd"
   xmlns="http://www.w3.org/2000/svg"
   xmlns:svg="http://www.w3.org/2000/svg"
   xmlns:rdf="http://www.w3.org/1999/02/22-rdf-syntax-ns#"
   xmlns:cc="http://creativecommons.org/ns#"
   xmlns:dc="http://purl.org/dc/elements/1.1/">
  <title
     id="title4162">Adwaita Icon Template</title>
  <defs
     id="defs3">
    <clipPath
       clipPathUnits="userSpaceOnUse"
       id="clipPath19267-3">
      <rect
         style="fill:#f6f5f4;stroke-width:0.377953;stroke-linecap:round;stroke-linejoin:round"
         id="rect19269-6"
         width="103.99999"
         height="104.00049"
         x="70.900612"
         y="159.39407"
         rx="7.999999"
         ry="7.999999"
         transform="rotate(15)"
         clip-path="none" />
    </clipPath>
    <filter
       inkscape:collect="always"
       style="color-interpolation-filters:sRGB"
       id="filter19261-7"
       x="-0.067230882"
       y="-0.067230562"
       width="1.1344618"
       height="1.1344611">
      <feGaussianBlur
         inkscape:collect="always"
         stdDeviation="2.0800048"
         id="feGaussianBlur19263-5" />
    </filter>
  </defs>
  <sodipodi:namedview
     stroke="#ef2929"
     fill="#f57900"
     id="base"
     pagecolor="#ffffff"
     bordercolor="#666666"
     borderopacity="0.25490196"
     inkscape:pageopacity="0.0"
     inkscape:pageshadow="2"
     inkscape:zoom="2.2329688"
     inkscape:cx="30.228815"
     inkscape:cy="65.831642"
     inkscape:current-layer="layer9"
     showgrid="false"
     inkscape:grid-bbox="true"
     inkscape:document-units="px"
     inkscape:showpageshadow="false"
     inkscape:window-width="1680"
     inkscape:window-height="985"
     inkscape:window-x="0"
     inkscape:window-y="0"
     width="400px"
     height="300px"
     inkscape:snap-nodes="true"
     inkscape:snap-bbox="true"
     objecttolerance="7"
     gridtolerance="12"
     guidetolerance="13"
     inkscape:window-maximized="1"
     inkscape:pagecheckerboard="false"
     showguides="false"
     inkscape:guide-bbox="true"
     inkscape:locked="false"
     inkscape:measure-start="0,0"
     inkscape:measure-end="0,0"
     inkscape:object-nodes="true"
     inkscape:bbox-nodes="true"
     inkscape:snap-global="true"
     inkscape:object-paths="true"
     inkscape:snap-intersection-paths="true"
     inkscape:snap-bbox-edge-midpoints="true"
     inkscape:snap-bbox-midpoints="true"
     showborder="true"
     inkscape:snap-center="true"
     inkscape:snap-object-midpoints="true"
     inkscape:snap-midpoints="true"
     inkscape:snap-smooth-nodes="true"
     inkscape:snap-text-baseline="true"
     borderlayer="true"
     inkscape:deskcolor="#d1d1d1">
    <inkscape:grid
       type="xygrid"
       id="grid5883"
       spacingx="2"
       spacingy="2"
       enabled="true"
       visible="true"
       empspacing="4"
       originx="8"
       originy="8" />
    <sodipodi:guide
       position="72,16"
       orientation="0,1"
       id="guide1073"
       inkscape:locked="false"
       inkscape:label=""
       inkscape:color="rgb(0,0,255)" />
    <sodipodi:guide
       position="20,72"
       orientation="1,0"
       id="guide1075"
       inkscape:locked="false"
       inkscape:label=""
       inkscape:color="rgb(0,0,255)" />
    <sodipodi:guide
       position="72,112"
       orientation="0,1"
       id="guide1099"
       inkscape:locked="false"
       inkscape:label=""
       inkscape:color="rgb(0,0,255)" />
    <sodipodi:guide
       position="72,136"
       orientation="0,1"
       id="guide993"
       inkscape:locked="false"
       inkscape:label=""
       inkscape:color="rgb(0,0,255)" />
    <sodipodi:guide
       position="112,72"
       orientation="1,0"
       id="guide995"
       inkscape:locked="false"
       inkscape:label=""
       inkscape:color="rgb(0,0,255)" />
    <sodipodi:guide
       position="8.0000001,72"
       orientation="1,0"
       id="guide867"
       inkscape:locked="false"
       inkscape:label=""
       inkscape:color="rgb(0,0,255)" />
    <sodipodi:guide
       position="128,72"
       orientation="1,0"
       id="guide869"
       inkscape:locked="false"
       inkscape:label=""
       inkscape:color="rgb(0,0,255)" />
    <sodipodi:guide
       position="72,124"
       orientation="0,1"
       id="guide871"
       inkscape:locked="false"
       inkscape:label=""
       inkscape:color="rgb(0,0,255)" />
    <inkscape:grid
       type="xygrid"
       id="grid873"
       spacingx="1"
       spacingy="1"
       empspacing="8"
       color="#000000"
       opacity="0.49019608"
       empcolor="#000000"
       empopacity="0.08627451"
       dotted="true"
       originx="8"
       originy="8" />
    <sodipodi:guide
       position="32,72"
       orientation="1,0"
       id="guide877"
       inkscape:locked="false"
       inkscape:label=""
       inkscape:color="rgb(0,0,255)" />
    <sodipodi:guide
       position="124,72"
       orientation="1,0"
       id="guide879"
       inkscape:locked="false"
       inkscape:label=""
       inkscape:color="rgb(0,0,255)" />
    <sodipodi:guide
       position="72,128"
       orientation="0,1"
       id="guide881"
       inkscape:locked="false"
       inkscape:label=""
       inkscape:color="rgb(0,0,255)" />
    <sodipodi:guide
       position="72,20"
       orientation="0,1"
       id="guide883"
       inkscape:locked="false"
       inkscape:label=""
       inkscape:color="rgb(0,0,255)" />
    <sodipodi:guide
       position="16,72"
       orientation="1,0"
       id="guide885"
       inkscape:locked="false"
       inkscape:label=""
       inkscape:color="rgb(0,0,255)" />
    <sodipodi:guide
       position="136,72"
       orientation="1,0"
       id="guide887"
       inkscape:locked="false"
       inkscape:label=""
       inkscape:color="rgb(0,0,255)" />
    <sodipodi:guide
       position="72,8"
       orientation="0,1"
       id="guide897"
       inkscape:locked="false"
       inkscape:label=""
       inkscape:color="rgb(0,0,255)" />
    <sodipodi:guide
       position="72,32"
       orientation="0,1"
       id="guide899"
       inkscape:locked="false"
       inkscape:label=""
       inkscape:color="rgb(0,0,255)" />
    <sodipodi:guide
       position="264,264"
       orientation="-0.70710678,0.70710678"
       id="guide950"
       inkscape:locked="false"
       inkscape:label=""
       inkscape:color="rgb(0,0,255)" />
    <sodipodi:guide
       position="72,72"
       orientation="0.70710678,0.70710678"
       id="guide952"
       inkscape:locked="false"
       inkscape:label=""
       inkscape:color="rgb(0,0,255)" />
  </sodipodi:namedview>
  <metadata
     id="metadata4">
    <rdf:RDF>
      <cc:Work
         rdf:about="">
        <dc:format>image/svg+xml</dc:format>
        <dc:type
           rdf:resource="http://purl.org/dc/dcmitype/StillImage" />
        <dc:creator>
          <cc:Agent>
            <dc:title>GNOME Design Team</dc:title>
          </cc:Agent>
        </dc:creator>
        <dc:source />
        <cc:license
           rdf:resource="http://creativecommons.org/licenses/by-sa/4.0/" />
        <dc:title>Adwaita Icon Template</dc:title>
        <dc:subject>
          <rdf:Bag />
        </dc:subject>
        <dc:date />
        <dc:rights>
          <cc:Agent>
            <dc:title />
          </cc:Agent>
        </dc:rights>
        <dc:publisher>
          <cc:Agent>
            <dc:title />
          </cc:Agent>
        </dc:publisher>
        <dc:identifier />
        <dc:relation />
        <dc:language />
        <dc:coverage />
        <dc:description />
        <dc:contributor>
          <cc:Agent>
            <dc:title />
          </cc:Agent>
        </dc:contributor>
      </cc:Work>
      <cc:License
         rdf:about="http://creativecommons.org/licenses/by-sa/4.0/">
        <cc:permits
           rdf:resource="http://creativecommons.org/ns#Reproduction" />
        <cc:permits
           rdf:resource="http://creativecommons.org/ns#Distribution" />
        <cc:requires
           rdf:resource="http://creativecommons.org/ns#Notice" />
        <cc:requires
           rdf:resource="http://creativecommons.org/ns#Attribution" />
        <cc:permits
           rdf:resource="http://creativecommons.org/ns#DerivativeWorks" />
        <cc:requires
           rdf:resource="http://creativecommons.org/ns#ShareAlike" />
      </cc:License>
    </rdf:RDF>
  </metadata>
  <g
     id="layer1"
     inkscape:label="App Icon"
     inkscape:groupmode="layer"
     style="display:inline"
     transform="translate(8,-156)">
    <g
       inkscape:groupmode="layer"
       id="layer4"
       inkscape:label="template"
       style="display:inline"
       sodipodi:insensitive="true">
      <rect
         inkscape:label="0"
         y="172"
         x="9.2651362e-08"
         height="128"
         width="128"
         id="hicolor"
         style="display:inline;overflow:visible;visibility:visible;fill:#f0f0f0;fill-opacity:0;fill-rule:nonzero;stroke:none;stroke-width:0.5;marker:none;enable-background:accumulate" />
      <rect
         style="display:inline;overflow:visible;visibility:visible;fill:#f0f0f0;fill-opacity:0;fill-rule:nonzero;stroke:none;stroke-width:0.5;marker:none;enable-background:accumulate"
         id="symbolic"
         width="16"
         height="16"
         x="160"
         y="172"
         inkscape:label="0" />
    </g>
    <g
       inkscape:groupmode="layer"
       id="layer2"
       inkscape:label="baseplate"
       style="display:inline"
       sodipodi:insensitive="true">
      <g
         style="display:inline;fill:#000000;enable-background:new"
         transform="matrix(7.9911709,0,0,8.0036407,-167.7909,-4846.0776)"
         id="g12027"
         inkscape:export-xdpi="12"
         inkscape:export-ydpi="12" />
      <rect
         style="display:inline;overflow:visible;visibility:visible;fill:#f0f0f0;fill-opacity:1;fill-rule:nonzero;stroke:none;stroke-width:0.5;marker:none;enable-background:accumulate"
         id="128"
         width="128"
         height="128"
         x="9.2651362e-08"
         y="172"
         inkscape:label="0" />
      <g
         id="g883"
         style="fill:none;fill-opacity:0.25098;stroke:#a579b3;stroke-opacity:1"
         transform="translate(-24,24)" />
      <g
         id="g900"
         style="fill:none;fill-opacity:0.25098;stroke:#a579b3;stroke-opacity:1"
         transform="translate(-24,24)" />
      <rect
         inkscape:label=""
         y="172"
         x="160"
         height="16"
         width="16"
         id="16"
         style="display:inline;overflow:visible;visibility:visible;fill:#f0f0f0;fill-opacity:1;fill-rule:nonzero;stroke:none;stroke-width:0.5;marker:none;enable-background:accumulate" />
      <text
         xml:space="preserve"
         style="font-style:normal;font-variant:normal;font-weight:bold;font-stretch:normal;font-size:4px;line-height:125%;font-family:Cantarell;-inkscape-font-specification:'Cantarell, Bold';text-align:start;writing-mode:lr-tb;text-anchor:start;display:inline;fill:#000000;fill-opacity:1;stroke:none;stroke-width:0.332649;enable-background:new"
         x="0"
         y="167"
         id="text863"
         inkscape:label="icon-name"><tspan
           style="font-size:4px;stroke-width:0.332649"
           sodipodi:role="line"
           id="tspan861"
           x="0"
           y="167">Hicolor</tspan></text>
      <text
         inkscape:label="icon-name"
         id="text867"
         y="167"
         x="160"
         style="font-style:normal;font-variant:normal;font-weight:bold;font-stretch:normal;font-size:4px;line-height:125%;font-family:Cantarell;-inkscape-font-specification:'Cantarell, Bold';text-align:start;writing-mode:lr-tb;text-anchor:start;display:inline;fill:#000000;fill-opacity:1;stroke:none;stroke-width:0.332649;enable-background:new"
         xml:space="preserve"><tspan
           y="167"
           x="160"
           id="tspan865"
           sodipodi:role="line"
           style="font-size:4px;stroke-width:0.332649">Symbolic</tspan></text>
    </g>
    <g
       inkscape:groupmode="layer"
       id="layer9"
       inkscape:label="icons"
       style="display:inline">
      <rect
         style="display:inline;fill:#deddda;stroke-width:0.377953;stroke-linecap:round;stroke-linejoin:round;enable-background:new;fill-opacity:1"
         id="rect19257"
         width="103.99999"
         height="104.00049"
         x="70.90062"
         y="159.39407"
         rx="7.999999"
         ry="7.999999"
         transform="rotate(15)" />
      <rect
         style="display:inline;fill:#000000;fill-opacity:0.13;stroke:#000000;stroke-width:4;stroke-linecap:round;stroke-linejoin:round;stroke-opacity:0.13;filter:url(#filter19261-7);enable-background:new"
         id="rect19259"
         width="103.99999"
         height="104.00049"
         x="11.999999"
         y="184"
         rx="7.999999"
         ry="7.999999"
         clip-path="url(#clipPath19267-3)" />
      <rect
         style="display:inline;fill:#f6f5f4;stroke-width:0.377953;stroke-linecap:round;stroke-linejoin:round;enable-background:new;fill-opacity:1"
         id="rect43013"
         width="103.99999"
         height="104.00049"
         x="12.000004"
         y="183.99998"
         rx="7.999999"
         ry="7.999999" />
      <rect
         style="display:inline;fill:#f6d32d;fill-opacity:1;stroke-width:0.377954;stroke-linecap:round;stroke-linejoin:round;enable-background:new"
         id="rect43015-9"
         width="88"
         height="88"
         x="-280"
         y="-108"
         rx="2"
         ry="2"
         transform="matrix(0,-1,-1,0,0,0)" />
      <path
         id="use60062"
         style="display:inline;fill:#e6610d;stroke-width:1.46126;stroke-linecap:round;stroke-linejoin:round;stroke-opacity:0.3;enable-background:new;fill-opacity:1"
         d="m 54.121636,192 a 1.1921542,1.1921542 0 0 0 0.816406,1.24805 1.1921542,1.1921542 0 0 0 1.458986,-0.84375 1.1921542,1.1921542 0 0 0 0.03125,-0.4043 z m 45.277342,0.16797 a 0.69019458,0.69019458 0 0 0 -0.8457,0.48828 0.69019458,0.69019458 0 0 0 0.48828,0.8457 0.69019458,0.69019458 0 0 0 0.8457,-0.48828 0.69019458,0.69019458 0 0 0 -0.48828,-0.8457 z M 22.008353,192.5 a 1.6731989,1.6731989 0 0 0 -1.951172,1.05469 c -0.03247,0.14346 -0.05273,0.29175 -0.05273,0.44531 v 0.0234 a 1.6731989,1.6731989 0 0 0 1.138672,1.70898 1.6731989,1.6731989 0 0 0 2.048828,-1.18164 1.6731989,1.6731989 0 0 0 -1.183594,-2.05078 z m 43.849615,1.20508 a 1.1921542,1.1921542 0 0 0 -1.46094,0.84375 1.1921542,1.1921542 0 0 0 0.84375,1.45898 1.1921542,1.1921542 0 0 0 1.46094,-0.84179 1.1921542,1.1921542 0 0 0 -0.84375,-1.46094 z m -33.544926,1.55664 a 1.6731989,1.6731989 0 0 0 -2.050782,1.18359 1.6731989,1.6731989 0 0 0 1.183594,2.04883 1.6731989,1.6731989 0 0 0 2.048828,-1.18359 1.6731989,1.6731989 0 0 0 -1.18164,-2.04883 z m 43.847656,1.20312 a 1.1921542,1.1921542 0 0 0 -1.45898,0.84375 1.1921542,1.1921542 0 0 0 0.84179,1.46094 1.1921542,1.1921542 0 0 0 1.46094,-0.84375 1.1921542,1.1921542 0 0 0 -0.84375,-1.46094 z m -33.544922,1.55664 a 1.6731989,1.6731989 0 0 0 -2.048828,1.1836 1.6731989,1.6731989 0 0 0 1.181641,2.04883 1.6731989,1.6731989 0 0 0 2.050781,-1.18164 1.6731989,1.6731989 0 0 0 -1.183594,-2.05079 z m 43.847652,1.20508 a 1.1921542,1.1921542 0 0 0 -1.45898,0.84375 1.1921542,1.1921542 0 0 0 0.84375,1.45899 1.1921542,1.1921542 0 0 0 1.45898,-0.8418 1.1921542,1.1921542 0 0 0 -0.84375,-1.46094 z M 52.91851,200.7832 a 1.6731989,1.6731989 0 0 0 -2.048828,1.1836 1.6731989,1.6731989 0 0 0 1.183594,2.04882 1.6731989,1.6731989 0 0 0 2.048828,-1.18359 1.6731989,1.6731989 0 0 0 -1.183594,-2.04883 z m 43.849608,1.20313 a 1.1921542,1.1921542 0 0 0 -1.46094,0.84375 1.1921542,1.1921542 0 0 0 0.84375,1.46094 1.1921542,1.1921542 0 0 0 1.45899,-0.84375 1.1921542,1.1921542 0 0 0 -0.8418,-1.46094 z m -76.763671,0.65429 v 3.5 a 2.1542436,2.1542436 0 0 0 0.890625,-1.16406 2.1542436,2.1542436 0 0 0 -0.890625,-2.33594 z m 43.216801,0.90235 a 1.6731989,1.6731989 0 0 0 -2.04883,1.18359 1.6731989,1.6731989 0 0 0 1.18359,2.04883 1.6731989,1.6731989 0 0 0 2.04883,-1.18164 1.6731989,1.6731989 0 0 0 -1.18359,-2.05078 z m 43.849612,1.20508 a 1.1921542,1.1921542 0 0 0 -1.46094,0.84375 1.1921542,1.1921542 0 0 0 0.84375,1.45898 1.1921542,1.1921542 0 0 0 1.46094,-0.84375 1.1921542,1.1921542 0 0 0 -0.84375,-1.45898 z m -77.394537,0.35156 a 2.1542436,2.1542436 0 0 0 -2.638672,1.52344 2.1542436,2.1542436 0 0 0 1.523438,2.63867 2.1542436,2.1542436 0 0 0 2.638671,-1.52344 2.1542436,2.1542436 0 0 0 -1.523437,-2.63867 z m 43.847655,1.20508 a 1.6731989,1.6731989 0 0 0 -2.04883,1.18359 1.6731989,1.6731989 0 0 0 1.1836,2.04883 1.6731989,1.6731989 0 0 0 2.04882,-1.18359 1.6731989,1.6731989 0 0 0 -1.18359,-2.04883 z m -33.544921,1.55664 a 2.1542436,2.1542436 0 0 0 -2.638671,1.52344 2.1542436,2.1542436 0 0 0 1.523437,2.63671 2.1542436,2.1542436 0 0 0 2.638672,-1.52343 2.1542436,2.1542436 0 0 0 -1.523438,-2.63672 z m 43.849611,1.20312 a 1.6731989,1.6731989 0 0 0 -2.04883,1.1836 1.6731989,1.6731989 0 0 0 1.18164,2.04883 1.6731989,1.6731989 0 0 0 2.04883,-1.1836 1.6731989,1.6731989 0 0 0 -1.18164,-2.04883 z m -33.546876,1.55664 a 2.1542436,2.1542436 0 0 0 -2.638672,1.52344 2.1542436,2.1542436 0 0 0 1.523437,2.63867 2.1542436,2.1542436 0 0 0 2.638672,-1.52343 2.1542436,2.1542436 0 0 0 -1.523437,-2.63868 z m 43.849606,1.20508 a 1.6731989,1.6731989 0 0 0 -2.04883,1.1836 1.6731989,1.6731989 0 0 0 1.1836,2.04882 1.6731989,1.6731989 0 0 0 2.04883,-1.18359 1.6731989,1.6731989 0 0 0 -1.1836,-2.04883 z m -33.54492,1.55664 a 2.1542436,2.1542436 0 0 0 -2.63867,1.52344 2.1542436,2.1542436 0 0 0 1.52344,2.63672 2.1542436,2.1542436 0 0 0 2.63672,-1.52344 2.1542436,2.1542436 0 0 0 -1.52149,-2.63672 z m 43.847662,1.20313 a 1.6731989,1.6731989 0 0 0 -2.04883,1.18359 1.6731989,1.6731989 0 0 0 1.18359,2.04883 1.6731989,1.6731989 0 0 0 2.04883,-1.18359 1.6731989,1.6731989 0 0 0 -1.18359,-2.04883 z m -78.757817,0.35156 a 2.6352883,2.6352883 0 0 0 -1.863282,1.86523 2.6352883,2.6352883 0 0 0 1.863282,3.22657 2.6352883,2.6352883 0 0 0 3.226563,-1.86328 2.6352883,2.6352883 0 0 0 -1.863282,-3.22852 2.6352883,2.6352883 0 0 0 -1.363281,0 z m 45.212895,1.20508 a 2.1542436,2.1542436 0 0 0 -2.63868,1.52344 2.1542436,2.1542436 0 0 0 1.52344,2.63867 2.1542436,2.1542436 0 0 0 2.63867,-1.52344 2.1542436,2.1542436 0 0 0 -1.52343,-2.63867 z m -34.910161,1.55664 a 2.6352883,2.6352883 0 0 0 -1.863281,1.86328 2.6352883,2.6352883 0 0 0 1.863281,3.22852 2.6352883,2.6352883 0 0 0 3.226563,-1.86524 2.6352883,2.6352883 0 0 0 -1.863281,-3.22656 2.6352883,2.6352883 0 0 0 -1.363282,0 z m 45.212891,1.20508 a 2.1542436,2.1542436 0 0 0 -2.63867,1.52343 2.1542436,2.1542436 0 0 0 1.52344,2.63672 2.1542436,2.1542436 0 0 0 2.63867,-1.52343 2.1542436,2.1542436 0 0 0 -1.52344,-2.63672 z m -34.910156,1.55468 a 2.6352883,2.6352883 0 0 0 -1.863282,1.86524 2.6352883,2.6352883 0 0 0 1.863282,3.22656 2.6352883,2.6352883 0 0 0 3.228515,-1.86328 2.6352883,2.6352883 0 0 0 -1.863281,-3.22852 2.6352883,2.6352883 0 0 0 -1.365234,0 z m 45.212886,1.20508 a 2.1542436,2.1542436 0 0 0 -2.63867,1.52344 2.1542436,2.1542436 0 0 0 1.52344,2.63867 2.1542436,2.1542436 0 0 0 2.63867,-1.52344 2.1542436,2.1542436 0 0 0 -1.52344,-2.63867 z m -34.91015,1.55664 a 2.6352883,2.6352883 0 0 0 -1.863283,1.86328 2.6352883,2.6352883 0 0 0 1.863283,3.22852 2.6352883,2.6352883 0 0 0 3.22851,-1.86523 2.6352883,2.6352883 0 0 0 -1.86328,-3.22657 2.6352883,2.6352883 0 0 0 -1.36523,0 z m 45.212892,1.20508 a 2.1542436,2.1542436 0 0 0 -2.636722,1.52149 2.1542436,2.1542436 0 0 0 1.521482,2.63867 2.1542436,2.1542436 0 0 0 2.63868,-1.52344 2.1542436,2.1542436 0 0 0 -1.52344,-2.63672 z m -79.007817,0.35156 a 3.1163333,3.1163333 0 0 0 -2.203125,2.20313 3.1163333,3.1163333 0 0 0 2.203125,3.81641 3.1163333,3.1163333 0 0 0 3.818361,-2.20313 3.1163333,3.1163333 0 0 0 -2.205078,-3.81641 3.1163333,3.1163333 0 0 0 -1.613283,0 z m 44.099615,1.20313 a 2.6352883,2.6352883 0 0 0 -1.86524,1.86328 2.6352883,2.6352883 0 0 0 1.86524,3.22852 2.6352883,2.6352883 0 0 0 3.22656,-1.86329 2.6352883,2.6352883 0 0 0 -1.86328,-3.22851 2.6352883,2.6352883 0 0 0 -1.36328,0 z m -33.794926,1.55664 a 3.1163333,3.1163333 0 0 0 -2.205078,2.20508 3.1163333,3.1163333 0 0 0 2.205078,3.8164 3.1163333,3.1163333 0 0 0 3.816406,-2.20507 3.1163333,3.1163333 0 0 0 -2.203125,-3.81641 3.1163333,3.1163333 0 0 0 -1.613281,0 z m 44.097656,1.20508 a 2.6352883,2.6352883 0 0 0 -1.86328,1.86328 2.6352883,2.6352883 0 0 0 1.86328,3.22851 2.6352883,2.6352883 0 0 0 3.22656,-1.86523 2.6352883,2.6352883 0 0 0 -1.86328,-3.22656 2.6352883,2.6352883 0 0 0 -1.36328,0 z m -33.794922,1.55664 a 3.1163333,3.1163333 0 0 0 -2.203125,2.20312 3.1163333,3.1163333 0 0 0 2.203125,3.81641 3.1163333,3.1163333 0 0 0 3.816406,-2.20313 3.1163333,3.1163333 0 0 0 -2.203125,-3.8164 3.1163333,3.1163333 0 0 0 -1.613281,0 z m 44.097652,1.20312 a 2.6352883,2.6352883 0 0 0 -1.86328,1.86328 2.6352883,2.6352883 0 0 0 1.86328,3.22852 2.6352883,2.6352883 0 0 0 3.22852,-1.86328 2.6352883,2.6352883 0 0 0 -1.86523,-3.22852 2.6352883,2.6352883 0 0 0 -1.36329,0 z m -33.794918,1.55664 a 3.1163333,3.1163333 0 0 0 -2.203124,2.20508 3.1163333,3.1163333 0 0 0 2.203124,3.81641 3.1163333,3.1163333 0 0 0 3.816408,-2.20508 3.1163333,3.1163333 0 0 0 -2.203126,-3.81641 3.1163333,3.1163333 0 0 0 -1.613282,0 z m 44.097658,1.20508 a 2.6352883,2.6352883 0 0 0 -1.86328,1.86328 2.6352883,2.6352883 0 0 0 1.86328,3.22657 2.6352883,2.6352883 0 0 0 3.228512,-1.86329 2.6352883,2.6352883 0 0 0 -1.863282,-3.22656 2.6352883,2.6352883 0 0 0 -1.36523,0 z m -77.792971,0.35156 v 6.94922 a 3.5973777,3.5973777 0 0 0 4.306642,-2.54297 3.5973777,3.5973777 0 0 0 -2.54297,-4.40625 3.5973777,3.5973777 0 0 0 -1.763672,0 z m 43.998051,1.20508 a 3.1163333,3.1163333 0 0 0 -2.20313,2.20313 3.1163333,3.1163333 0 0 0 2.20313,3.8164 3.1163333,3.1163333 0 0 0 3.8164,-2.20312 3.1163333,3.1163333 0 0 0 -2.20312,-3.81641 3.1163333,3.1163333 0 0 0 -1.61328,0 z m 44.001952,1.25781 a 2.6352883,2.6352883 0 0 0 -1.76758,1.8086 2.6352883,2.6352883 0 0 0 1.76758,3.17383 z m -77.796877,0.29883 a 3.5973777,3.5973777 0 0 0 -2.542969,2.54297 3.5973777,3.5973777 0 0 0 2.542969,4.40625 3.5973777,3.5973777 0 0 0 4.40625,-2.54492 3.5973777,3.5973777 0 0 0 -2.542969,-4.4043 3.5973777,3.5973777 0 0 0 -1.863281,0 z m 44.099605,1.20313 a 3.1163333,3.1163333 0 0 0 -2.20507,2.20508 3.1163333,3.1163333 0 0 0 2.20507,3.8164 3.1163333,3.1163333 0 0 0 3.81641,-2.20508 3.1163333,3.1163333 0 0 0 -2.20508,-3.8164 3.1163333,3.1163333 0 0 0 -1.61133,0 z m -33.794918,1.55664 a 3.5973777,3.5973777 0 0 0 -2.544921,2.54492 3.5973777,3.5973777 0 0 0 2.544921,4.4043 3.5973777,3.5973777 0 0 0 4.404297,-2.54297 3.5973777,3.5973777 0 0 0 -2.542968,-4.40625 3.5973777,3.5973777 0 0 0 -1.861329,0 z m 44.097658,1.20508 a 3.1163333,3.1163333 0 0 0 -2.20313,2.20312 3.1163333,3.1163333 0 0 0 2.20313,3.81641 3.1163333,3.1163333 0 0 0 3.81641,-2.20313 3.1163333,3.1163333 0 0 0 -2.20313,-3.8164 3.1163333,3.1163333 0 0 0 -1.61328,0 z m -33.794923,1.55664 a 3.5973777,3.5973777 0 0 0 -2.544922,2.54297 3.5973777,3.5973777 0 0 0 2.544922,4.40625 3.5973777,3.5973777 0 0 0 4.40625,-2.54493 3.5973777,3.5973777 0 0 0 -2.544922,-4.40429 3.5973777,3.5973777 0 0 0 -1.861328,0 z m 44.097653,1.20312 a 3.1163333,3.1163333 0 0 0 -2.20312,2.20313 3.1163333,3.1163333 0 0 0 2.20312,3.81836 3.1163333,3.1163333 0 0 0 3.81641,-2.20508 3.1163333,3.1163333 0 0 0 -2.20313,-3.81641 3.1163333,3.1163333 0 0 0 -1.61328,0 z m -74.908201,0.6875 v 7.06446 a 4.0993377,4.0993377 0 0 0 2.03125,-2.39844 4.0993377,4.0993377 0 0 0 -2.03125,-4.66602 z m 41.113281,0.86914 a 3.5973777,3.5973777 0 0 0 -2.54297,2.54297 3.5973777,3.5973777 0 0 0 2.54297,4.40625 3.5973777,3.5973777 0 0 0 4.40625,-2.54297 3.5973777,3.5973777 0 0 0 -2.54492,-4.40625 3.5973777,3.5973777 0 0 0 -1.86133,0 z m 44.097662,1.20508 a 3.1163333,3.1163333 0 0 0 -2.20313,2.20313 3.1163333,3.1163333 0 0 0 2.20313,3.8164 3.1163333,3.1163333 0 0 0 2.78906,-0.67969 v -4.72656 a 3.1163333,3.1163333 0 0 0 -1.17578,-0.61328 3.1163333,3.1163333 0 0 0 -1.61328,0 z m -77.898442,0.33203 a 4.0993377,4.0993377 0 0 0 -2.898438,2.89844 4.0993377,4.0993377 0 0 0 2.898438,5.01953 4.0993377,4.0993377 0 0 0 5.021484,-2.89844 4.0993377,4.0993377 0 0 0 -2.898437,-5.01953 4.0993377,4.0993377 0 0 0 -2.123047,0 z m 44.10352,1.22461 a 3.5973777,3.5973777 0 0 0 -2.54297,2.54297 3.5973777,3.5973777 0 0 0 2.54297,4.40625 3.5973777,3.5973777 0 0 0 4.40625,-2.54492 3.5973777,3.5973777 0 0 0 -2.54297,-4.4043 3.5973777,3.5973777 0 0 0 -1.86328,0 z m -33.798832,1.53516 a 4.0993377,4.0993377 0 0 0 -2.900391,2.89844 4.0993377,4.0993377 0 0 0 2.900391,5.02148 4.0993377,4.0993377 0 0 0 5.019531,-2.89844 4.0993377,4.0993377 0 0 0 -2.898438,-5.02148 4.0993377,4.0993377 0 0 0 -2.121093,0 z m 44.103512,1.22461 a 3.5973777,3.5973777 0 0 0 -2.54492,2.54297 3.5973777,3.5973777 0 0 0 2.54492,4.40625 3.5973777,3.5973777 0 0 0 4.4043,-2.54297 3.5973777,3.5973777 0 0 0 -2.54297,-4.40625 3.5973777,3.5973777 0 0 0 -1.86133,0 z M 47.92437,252.7168 a 4.0993377,4.0993377 0 0 0 -2.898438,2.89843 4.0993377,4.0993377 0 0 0 2.898438,5.01954 4.0993377,4.0993377 0 0 0 5.019531,-2.89844 4.0993377,4.0993377 0 0 0 -2.898437,-5.01953 4.0993377,4.0993377 0 0 0 -2.121094,0 z m 44.103518,1.22461 a 3.5973777,3.5973777 0 0 0 -2.54492,2.54297 3.5973777,3.5973777 0 0 0 2.54492,4.40624 3.5973777,3.5973777 0 0 0 4.40625,-2.54492 3.5973777,3.5973777 0 0 0 -2.54492,-4.40429 3.5973777,3.5973777 0 0 0 -1.86133,0 z m -33.80078,1.53515 a 4.0993377,4.0993377 0 0 0 -2.898441,2.89844 4.0993377,4.0993377 0 0 0 2.898441,5.02148 4.0993377,4.0993377 0 0 0 5.02148,-2.89843 4.0993377,4.0993377 0 0 0 -2.89844,-5.02149 4.0993377,4.0993377 0 0 0 -2.12304,0 z m 44.103512,1.22461 a 3.5973777,3.5973777 0 0 0 -2.542972,2.54297 3.5973777,3.5973777 0 0 0 2.542972,4.40625 3.5973777,3.5973777 0 0 0 4.40625,-2.54297 3.5973777,3.5973777 0 0 0 -2.54492,-4.40625 3.5973777,3.5973777 0 0 0 -1.86133,0 z m -77.898438,0.33203 a 4.5803823,4.5803823 0 0 0 -3.238282,3.23828 4.5803823,4.5803823 0 0 0 3.238282,5.60938 4.5803823,4.5803823 0 0 0 5.609375,-3.23828 4.5803823,4.5803823 0 0 0 -3.238281,-5.60938 4.5803823,4.5803823 0 0 0 -2.371094,0 z m 44.097656,1.20508 a 4.0993377,4.0993377 0 0 0 -2.89844,2.89844 4.0993377,4.0993377 0 0 0 2.89844,5.01953 4.0993377,4.0993377 0 0 0 5.02149,-2.89844 4.0993377,4.0993377 0 0 0 -2.89844,-5.01953 4.0993377,4.0993377 0 0 0 -2.12305,0 z m -33.794921,1.55469 a 4.5803823,4.5803823 0 0 0 -3.238281,3.24023 4.5803823,4.5803823 0 0 0 3.238281,5.60938 4.5803823,4.5803823 0 0 0 5.611328,-3.23828 4.5803823,4.5803823 0 0 0 -3.240235,-5.61133 4.5803823,4.5803823 0 0 0 -2.371093,0 z m 44.099611,1.20508 a 4.0993377,4.0993377 0 0 0 -2.90039,2.89843 4.0993377,4.0993377 0 0 0 2.90039,5.02149 4.0993377,4.0993377 0 0 0 5.01953,-2.89844 4.0993377,4.0993377 0 0 0 -2.89844,-5.02148 4.0993377,4.0993377 0 0 0 -2.12109,0 z m -33.794924,1.55664 a 4.5803823,4.5803823 0 0 0 -3.240234,3.23828 4.5803823,4.5803823 0 0 0 3.240234,5.60937 4.5803823,4.5803823 0 0 0 5.609375,-3.23828 4.5803823,4.5803823 0 0 0 -3.238281,-5.60937 4.5803823,4.5803823 0 0 0 -2.371094,0 z m 44.097654,1.20508 a 4.0993377,4.0993377 0 0 0 -2.89843,2.89843 4.0993377,4.0993377 0 0 0 2.89843,5.01953 4.0993377,4.0993377 0 0 0 5.01953,-2.89843 4.0993377,4.0993377 0 0 0 -2.89843,-5.01953 4.0993377,4.0993377 0 0 0 -2.1211,0 z m -33.794919,1.55468 a 4.5803823,4.5803823 0 0 0 -3.238282,3.24024 4.5803823,4.5803823 0 0 0 3.238282,5.60937 4.5803823,4.5803823 0 0 0 5.609379,-3.23828 4.5803823,4.5803823 0 0 0 -3.23829,-5.61133 4.5803823,4.5803823 0 0 0 -2.371089,0 z m 44.097659,1.20508 a 4.0993377,4.0993377 0 0 0 -2.89844,2.89844 4.0993377,4.0993377 0 0 0 2.89844,5.02148 4.0993377,4.0993377 0 0 0 5.021482,-2.89843 4.0993377,4.0993377 0 0 0 -2.90039,-5.02149 4.0993377,4.0993377 0 0 0 -2.121092,0 z m -77.892582,0.35156 a 5.061427,5.061427 0 0 0 -1.542969,0.89063 v 7.99805 a 5.061427,5.061427 0 0 0 1.542969,0.89062 5.061427,5.061427 0 0 0 6.19922,-3.58008 5.061427,5.061427 0 0 0 -3.580079,-6.19922 5.061427,5.061427 0 0 0 -2.619141,0 z m 44.097652,1.20508 a 4.5803823,4.5803823 0 0 0 -3.23828,3.23828 4.5803823,4.5803823 0 0 0 3.23828,5.60938 4.5803823,4.5803823 0 0 0 5.60938,-3.23828 4.5803823,4.5803823 0 0 0 -3.23828,-5.60938 4.5803823,4.5803823 0 0 0 -2.3711,0 z m -33.794917,1.55664 a 5.061427,5.061427 0 0 0 -3.578125,3.57813 5.061427,5.061427 0 0 0 3.578125,6.19922 5.061427,5.061427 0 0 0 6.199219,-3.57813 5.061427,5.061427 0 0 0 -3.578125,-6.19922 5.061427,5.061427 0 0 0 -2.621094,0 z m 76.154299,0.65235 a 4.0993377,4.0993377 0 0 0 -1.16016,1.89453 4.0993377,4.0993377 0 0 0 1.16016,4.01562 z m -32.056642,0.55078 a 4.5803823,4.5803823 0 0 0 -3.23828,3.24023 4.5803823,4.5803823 0 0 0 3.23828,5.60938 4.5803823,4.5803823 0 0 0 5.61133,-3.23828 4.5803823,4.5803823 0 0 0 -3.24024,-5.61133 4.5803823,4.5803823 0 0 0 -2.37109,0 z m -33.794922,1.55664 A 5.061427,5.061427 0 0 0 38.57476,275.97266 5.061427,5.061427 0 0 0 39.38726,280 h 8.152344 a 5.061427,5.061427 0 0 0 0.8125,-1.4082 5.061427,5.061427 0 0 0 -3.578125,-6.19922 5.061427,5.061427 0 0 0 -2.621093,0 z m 44.099612,1.20508 a 4.5803823,4.5803823 0 0 0 -3.24024,3.23828 4.5803823,4.5803823 0 0 0 0.45703,3.16406 h 7.93555 a 4.5803823,4.5803823 0 0 0 0.45703,-0.79297 4.5803823,4.5803823 0 0 0 -3.24023,-5.60937 4.5803823,4.5803823 0 0 0 -2.36914,0 z m -33.794925,1.55664 a 5.061427,5.061427 0 0 0 -3.580078,3.57812 5.061427,5.061427 0 0 0 0,1.26758 h 9.931643 a 5.061427,5.061427 0 0 0 -3.732424,-4.8457 5.061427,5.061427 0 0 0 -2.619141,0 z m 44.097655,1.20312 a 4.5803823,4.5803823 0 0 0 -3.24023,3.24024 4.5803823,4.5803823 0 0 0 0,0.40234 h 8.919922 a 4.5803823,4.5803823 0 0 0 -3.308592,-3.64258 4.5803823,4.5803823 0 0 0 -2.3711,0 z m -33.79492,1.55664 A 5.061427,5.061427 0 0 0 60.043508,280 h 8.22852 a 5.061427,5.061427 0 0 0 -2.89258,-2.08594 5.061427,5.061427 0 0 0 -2.61914,0 z m 44.097662,1.20508 A 4.5803823,4.5803823 0 0 0 105.33257,280 h 0.67188 c 0.6925,0 1.30145,-0.34902 1.66016,-0.88086 a 4.5803823,4.5803823 0 0 0 -0.80664,0 z" />
      <g
         id="g80018">
        <path
           d="m 164,173 c -1.64453,0 -3,1.35547 -3,3 v 8 c 0,1.64453 1.35547,3 3,3 h 8 c 1.64453,0 3,-1.35547 3,-3 v -8 c 0,-1.64453 -1.35547,-3 -3,-3 z m 0,2 h 8 c 0.57031,0 1,0.42969 1,1 v 8 c 0,0.57031 -0.42969,1 -1,1 h -8 c -0.57031,0 -1,-0.42969 -1,-1 v -8 c 0,-0.57031 0.42969,-1 1,-1 z m 0,0"
           id="path74353"
           style="display:inline;fill:#241f31;enable-background:new" />
        <circle
           id="circle74355"
           cx="165.5"
           cy="182.5"
           r="1.5"
           style="display:inline;fill:#241f31;enable-background:new" />
        <circle
           id="circle74357"
           cx="165"
           cy="179"
           r="1"
           style="display:inline;fill:#241f31;enable-background:new" />
        <circle
           id="circle74359"
           cx="169"
           cy="183"
           r="1"
           style="display:inline;fill:#241f31;enable-background:new" />
        <circle
           id="circle74361"
           cx="168"
           cy="180"
           r="1"
           style="display:inline;fill:#241f31;enable-background:new" />
        <circle
           id="circle74363"
           cx="164.5"
           cy="176.5"
           r="0.5"
           style="display:inline;fill:#241f31;enable-background:new" />
        <circle
           id="circle74365"
           cx="171.5"
           cy="183.5"
           r="0.5"
           style="display:inline;fill:#241f31;enable-background:new" />
        <circle
           id="circle74367"
           cx="167"
           cy="177"
           r="1"
           style="display:inline;fill:#241f31;enable-background:new" />
        <circle
           id="circle74369"
           cx="171"
           cy="181"
           r="1"
           style="display:inline;fill:#241f31;enable-background:new" />
        <circle
           id="circle74371"
           cx="170.5"
           cy="177.5"
           r="1.5"
           style="display:inline;fill:#241f31;enable-background:new" />
      </g>
    </g>
    <g
       inkscape:groupmode="layer"
       id="layer3"
       inkscape:label="grid"
       style="display:none"
       sodipodi:insensitive="true">
      <circle
         cx="64.000031"
         cy="236"
         r="59.504131"
         id="circle2892"
         style="display:inline;opacity:0.1;vector-effect:none;fill:none;fill-opacity:1;stroke:#000000;stroke-width:0.99;stroke-linecap:butt;stroke-linejoin:miter;stroke-miterlimit:4;stroke-dasharray:0.99, 0.99;stroke-dashoffset:0;stroke-opacity:1;marker:none;marker-start:none;marker-mid:none;marker-end:none;paint-order:normal;enable-background:new" />
      <rect
         ry="7.9292889"
         rx="8.701004"
         y="180.49496"
         x="20.495007"
         height="111.01005"
         width="87.009987"
         id="rect2894"
         style="display:inline;opacity:0.1;vector-effect:none;fill:none;fill-opacity:1;stroke:#000000;stroke-width:0.99;stroke-linecap:butt;stroke-linejoin:miter;stroke-miterlimit:4;stroke-dasharray:0.99, 0.99;stroke-dashoffset:0;stroke-opacity:1;marker:none;marker-start:none;marker-mid:none;marker-end:none;paint-order:normal;enable-background:new" />
      <rect
         ry="7.9238095"
         rx="7.9238095"
         y="184.49524"
         x="12.495266"
         height="103.00952"
         width="103.00952"
         id="rect2896"
         style="display:inline;opacity:0.1;vector-effect:none;fill:none;fill-opacity:1;stroke:#000000;stroke-width:0.99;stroke-linecap:butt;stroke-linejoin:miter;stroke-miterlimit:4;stroke-dasharray:0.99, 0.99;stroke-dashoffset:0;stroke-opacity:1;marker:none;marker-start:none;marker-mid:none;marker-end:none;paint-order:normal;enable-background:new" />
      <rect
         ry="8.701005"
         rx="7.9292889"
         y="200.49496"
         x="8.4950066"
         height="87.010048"
         width="111.01004"
         id="rect2898"
         style="display:inline;opacity:0.1;vector-effect:none;fill:none;fill-opacity:1;stroke:#000000;stroke-width:0.99;stroke-linecap:butt;stroke-linejoin:miter;stroke-miterlimit:4;stroke-dasharray:0.99, 0.99;stroke-dashoffset:0;stroke-opacity:1;marker:none;marker-start:none;marker-mid:none;marker-end:none;paint-order:normal;enable-background:new" />
      <path
         inkscape:connector-curvature="0"
         id="path2900"
         d="M 2.6203015e-5,288.99999 H 128.00003"
         style="display:inline;fill:none;stroke:#62a0ea;stroke-width:2;stroke-linecap:butt;stroke-linejoin:miter;stroke-miterlimit:4;stroke-dasharray:none;stroke-opacity:1;enable-background:new" />
    </g>
  </g>
</svg>
