<?xml version="1.0" encoding="UTF-8" standalone="no"?>
<!-- Created with Inkscape (http://www.inkscape.org/) -->

<svg
   inkscape:export-ydpi="96"
   inkscape:export-xdpi="96"
   inkscape:export-filename="Template.png"
   width="192"
   height="152"
   id="svg11300"
   sodipodi:version="0.32"
   inkscape:version="1.2.2 (b0a8486541, 2022-12-01)"
   sodipodi:docname="io.github.tfuxu.Halftone.Source.svg"
   inkscape:output_extension="org.inkscape.output.svg.inkscape"
   version="1.0"
   style="display:inline;enable-background:new"
   viewBox="0 0 192 152"
   xml:space="preserve"
   xmlns:inkscape="http://www.inkscape.org/namespaces/inkscape"
   xmlns:sodipodi="http://sodipodi.sourceforge.net/DTD/sodipodi-0.dtd"
   xmlns="http://www.w3.org/2000/svg"
   xmlns:svg="http://www.w3.org/2000/svg"
   xmlns:rdf="http://www.w3.org/1999/02/22-rdf-syntax-ns#"
   xmlns:cc="http://creativecommons.org/ns#"
   xmlns:dc="http://purl.org/dc/elements/1.1/"><title
     id="title4162">Adwaita Icon Template</title><defs
     id="defs3"><clipPath
       clipPathUnits="userSpaceOnUse"
       id="clipPath19267-3-3"><rect
         style="fill:#f6f5f4;stroke-width:0.377953;stroke-linecap:round;stroke-linejoin:round"
         id="rect19269-6-6"
         width="103.99999"
         height="104.00049"
         x="70.900612"
         y="159.39407"
         rx="7.999999"
         ry="7.999999"
         transform="rotate(15)"
         clip-path="none" /></clipPath><filter
       inkscape:collect="always"
       style="color-interpolation-filters:sRGB"
       id="filter19261-7"
       x="-0.067230882"
       y="-0.067230562"
       width="1.1344618"
       height="1.1344611"><feGaussianBlur
         inkscape:collect="always"
         stdDeviation="2.0800048"
         id="feGaussianBlur19263-5" /></filter><clipPath
       clipPathUnits="userSpaceOnUse"
       id="clipPath94096"><rect
         id="rect94098"
         width="96"
         height="96"
         x="-112"
         y="188"
         rx="4"
         ry="4"
         transform="scale(-1,1)"
         style="fill:#9141ac;stroke-width:1" /></clipPath></defs><sodipodi:namedview
     stroke="#ef2929"
     fill="#f57900"
     id="base"
     pagecolor="#ffffff"
     bordercolor="#666666"
     borderopacity="0.25490196"
     inkscape:pageopacity="0.0"
     inkscape:pageshadow="2"
     inkscape:zoom="3.1578947"
     inkscape:cx="96.108333"
     inkscape:cy="76"
     inkscape:current-layer="layer9"
     showgrid="false"
     inkscape:grid-bbox="true"
     inkscape:document-units="px"
     inkscape:showpageshadow="false"
     inkscape:window-width="1280"
     inkscape:window-height="731"
     inkscape:window-x="0"
     inkscape:window-y="0"
     width="400px"
     height="300px"
     inkscape:snap-nodes="true"
     inkscape:snap-bbox="true"
     objecttolerance="7"
     gridtolerance="12"
     guidetolerance="13"
     inkscape:window-maximized="1"
     inkscape:pagecheckerboard="false"
     showguides="false"
     inkscape:guide-bbox="true"
     inkscape:locked="false"
     inkscape:measure-start="0,0"
     inkscape:measure-end="0,0"
     inkscape:object-nodes="true"
     inkscape:bbox-nodes="true"
     inkscape:snap-global="true"
     inkscape:object-paths="true"
     inkscape:snap-intersection-paths="true"
     inkscape:snap-bbox-edge-midpoints="true"
     inkscape:snap-bbox-midpoints="true"
     showborder="true"
     inkscape:snap-center="true"
     inkscape:snap-object-midpoints="true"
     inkscape:snap-midpoints="true"
     inkscape:snap-smooth-nodes="true"
     inkscape:snap-text-baseline="true"
     borderlayer="true"
     inkscape:deskcolor="#d1d1d1"><inkscape:grid
       type="xygrid"
       id="grid5883"
       spacingx="2"
       spacingy="2"
       enabled="true"
       visible="true"
       empspacing="4"
       originx="8"
       originy="8" /><sodipodi:guide
       position="72,16"
       orientation="0,1"
       id="guide1073"
       inkscape:locked="false"
       inkscape:label=""
       inkscape:color="rgb(0,0,255)" /><sodipodi:guide
       position="20,72"
       orientation="1,0"
       id="guide1075"
       inkscape:locked="false"
       inkscape:label=""
       inkscape:color="rgb(0,0,255)" /><sodipodi:guide
       position="72,112"
       orientation="0,1"
       id="guide1099"
       inkscape:locked="false"
       inkscape:label=""
       inkscape:color="rgb(0,0,255)" /><sodipodi:guide
       position="72,136"
       orientation="0,1"
       id="guide993"
       inkscape:locked="false"
       inkscape:label=""
       inkscape:color="rgb(0,0,255)" /><sodipodi:guide
       position="112,72"
       orientation="1,0"
       id="guide995"
       inkscape:locked="false"
       inkscape:label=""
       inkscape:color="rgb(0,0,255)" /><sodipodi:guide
       position="8.0000001,72"
       orientation="1,0"
       id="guide867"
       inkscape:locked="false"
       inkscape:label=""
       inkscape:color="rgb(0,0,255)" /><sodipodi:guide
       position="128,72"
       orientation="1,0"
       id="guide869"
       inkscape:locked="false"
       inkscape:label=""
       inkscape:color="rgb(0,0,255)" /><sodipodi:guide
       position="72,124"
       orientation="0,1"
       id="guide871"
       inkscape:locked="false"
       inkscape:label=""
       inkscape:color="rgb(0,0,255)" /><inkscape:grid
       type="xygrid"
       id="grid873"
       spacingx="1"
       spacingy="1"
       empspacing="8"
       color="#000000"
       opacity="0.49019608"
       empcolor="#000000"
       empopacity="0.08627451"
       dotted="true"
       originx="8"
       originy="8" /><sodipodi:guide
       position="32,72"
       orientation="1,0"
       id="guide877"
       inkscape:locked="false"
       inkscape:label=""
       inkscape:color="rgb(0,0,255)" /><sodipodi:guide
       position="124,72"
       orientation="1,0"
       id="guide879"
       inkscape:locked="false"
       inkscape:label=""
       inkscape:color="rgb(0,0,255)" /><sodipodi:guide
       position="72,128"
       orientation="0,1"
       id="guide881"
       inkscape:locked="false"
       inkscape:label=""
       inkscape:color="rgb(0,0,255)" /><sodipodi:guide
       position="72,20"
       orientation="0,1"
       id="guide883"
       inkscape:locked="false"
       inkscape:label=""
       inkscape:color="rgb(0,0,255)" /><sodipodi:guide
       position="16,72"
       orientation="1,0"
       id="guide885"
       inkscape:locked="false"
       inkscape:label=""
       inkscape:color="rgb(0,0,255)" /><sodipodi:guide
       position="136,72"
       orientation="1,0"
       id="guide887"
       inkscape:locked="false"
       inkscape:label=""
       inkscape:color="rgb(0,0,255)" /><sodipodi:guide
       position="72,8"
       orientation="0,1"
       id="guide897"
       inkscape:locked="false"
       inkscape:label=""
       inkscape:color="rgb(0,0,255)" /><sodipodi:guide
       position="72,32"
       orientation="0,1"
       id="guide899"
       inkscape:locked="false"
       inkscape:label=""
       inkscape:color="rgb(0,0,255)" /><sodipodi:guide
       position="264,264"
       orientation="-0.70710678,0.70710678"
       id="guide950"
       inkscape:locked="false"
       inkscape:label=""
       inkscape:color="rgb(0,0,255)" /><sodipodi:guide
       position="72,72"
       orientation="0.70710678,0.70710678"
       id="guide952"
       inkscape:locked="false"
       inkscape:label=""
       inkscape:color="rgb(0,0,255)" /></sodipodi:namedview><metadata
     id="metadata4"><rdf:RDF><cc:Work
         rdf:about=""><dc:format>image/svg+xml</dc:format><dc:type
           rdf:resource="http://purl.org/dc/dcmitype/StillImage" /><dc:creator><cc:Agent><dc:title>GNOME Design Team</dc:title></cc:Agent></dc:creator><dc:source /><cc:license
           rdf:resource="http://creativecommons.org/licenses/by-sa/4.0/" /><dc:title>Adwaita Icon Template</dc:title><dc:subject><rdf:Bag /></dc:subject><dc:date /><dc:rights><cc:Agent><dc:title /></cc:Agent></dc:rights><dc:publisher><cc:Agent><dc:title /></cc:Agent></dc:publisher><dc:identifier /><dc:relation /><dc:language /><dc:coverage /><dc:description /><dc:contributor><cc:Agent><dc:title /></cc:Agent></dc:contributor></cc:Work><cc:License
         rdf:about="http://creativecommons.org/licenses/by-sa/4.0/"><cc:permits
           rdf:resource="http://creativecommons.org/ns#Reproduction" /><cc:permits
           rdf:resource="http://creativecommons.org/ns#Distribution" /><cc:requires
           rdf:resource="http://creativecommons.org/ns#Notice" /><cc:requires
           rdf:resource="http://creativecommons.org/ns#Attribution" /><cc:permits
           rdf:resource="http://creativecommons.org/ns#DerivativeWorks" /><cc:requires
           rdf:resource="http://creativecommons.org/ns#ShareAlike" /></cc:License></rdf:RDF></metadata><g
     id="layer1"
     inkscape:label="App Icon"
     inkscape:groupmode="layer"
     style="display:inline"
     transform="translate(8,-156)"><g
       inkscape:groupmode="layer"
       id="layer4"
       inkscape:label="template"
       style="display:inline"
       sodipodi:insensitive="true"><rect
         inkscape:label="0"
         y="172"
         x="9.2651362e-08"
         height="128"
         width="128"
         id="hicolor"
         style="display:inline;overflow:visible;visibility:visible;fill:#f0f0f0;fill-opacity:0;fill-rule:nonzero;stroke:none;stroke-width:0.5;marker:none;enable-background:accumulate" /><rect
         style="display:inline;overflow:visible;visibility:visible;fill:#f0f0f0;fill-opacity:0;fill-rule:nonzero;stroke:none;stroke-width:0.5;marker:none;enable-background:accumulate"
         id="symbolic"
         width="16"
         height="16"
         x="160"
         y="172"
         inkscape:label="0" /></g><g
       inkscape:groupmode="layer"
       id="layer2"
       inkscape:label="baseplate"
       style="display:inline"
       sodipodi:insensitive="true"><g
         style="display:inline;fill:#000000;enable-background:new"
         transform="matrix(7.9911709,0,0,8.0036407,-167.7909,-4846.0776)"
         id="g12027"
         inkscape:export-xdpi="12"
         inkscape:export-ydpi="12" /><rect
         style="display:inline;overflow:visible;visibility:visible;fill:#f0f0f0;fill-opacity:1;fill-rule:nonzero;stroke:none;stroke-width:0.5;marker:none;enable-background:accumulate"
         id="128"
         width="128"
         height="128"
         x="9.2651362e-08"
         y="172"
         inkscape:label="0" /><g
         id="g883"
         style="fill:none;fill-opacity:0.25098;stroke:#a579b3;stroke-opacity:1"
         transform="translate(-24,24)" /><g
         id="g900"
         style="fill:none;fill-opacity:0.25098;stroke:#a579b3;stroke-opacity:1"
         transform="translate(-24,24)" /><rect
         inkscape:label=""
         y="172"
         x="160"
         height="16"
         width="16"
         id="16"
         style="display:inline;overflow:visible;visibility:visible;fill:#f0f0f0;fill-opacity:1;fill-rule:nonzero;stroke:none;stroke-width:0.5;marker:none;enable-background:accumulate" /><text
         xml:space="preserve"
         style="font-style:normal;font-variant:normal;font-weight:bold;font-stretch:normal;font-size:4px;line-height:125%;font-family:Cantarell;-inkscape-font-specification:'Cantarell, Bold';text-align:start;writing-mode:lr-tb;text-anchor:start;display:inline;fill:#000000;fill-opacity:1;stroke:none;stroke-width:0.332649;enable-background:new"
         x="0"
         y="167"
         id="text863"
         inkscape:label="icon-name"><tspan
           style="font-size:4px;stroke-width:0.332649"
           sodipodi:role="line"
           id="tspan861"
           x="0"
           y="167">Hicolor</tspan></text><text
         inkscape:label="icon-name"
         id="text867"
         y="167"
         x="160"
         style="font-style:normal;font-variant:normal;font-weight:bold;font-stretch:normal;font-size:4px;line-height:125%;font-family:Cantarell;-inkscape-font-specification:'Cantarell, Bold';text-align:start;writing-mode:lr-tb;text-anchor:start;display:inline;fill:#000000;fill-opacity:1;stroke:none;stroke-width:0.332649;enable-background:new"
         xml:space="preserve"><tspan
           y="167"
           x="160"
           id="tspan865"
           sodipodi:role="line"
           style="font-size:4px;stroke-width:0.332649">Symbolic</tspan></text></g><g
       inkscape:groupmode="layer"
       id="layer9"
       inkscape:label="icons"
       style="display:inline"><rect
         style="display:inline;fill:#deddda;stroke-width:0.377953;stroke-linecap:round;stroke-linejoin:round;enable-background:new"
         id="rect19257"
         width="103.99999"
         height="104.00049"
         x="70.900612"
         y="159.39407"
         rx="7.999999"
         ry="7.999999"
         transform="rotate(15)" /><rect
         style="display:inline;fill:#000000;fill-opacity:0.13;stroke:#000000;stroke-width:4;stroke-linecap:round;stroke-linejoin:round;stroke-opacity:0.13;filter:url(#filter19261-7);enable-background:new"
         id="rect19259"
         width="103.99999"
         height="104.00049"
         x="11.999999"
         y="184"
         rx="7.999999"
         ry="7.999999"
         clip-path="url(#clipPath19267-3-3)" /><rect
         style="display:inline;fill:#f6f5f4;stroke-width:0.377953;stroke-linecap:round;stroke-linejoin:round;enable-background:new"
         id="rect43013"
         width="103.99999"
         height="104.00049"
         x="11.999994"
         y="183.99998"
         rx="7.999999"
         ry="7.999999" /><g
         id="g94094"
         clip-path="url(#clipPath94096)"><path
           id="circle35996"
           d="M 25.873047 184 A 2.4470587 2.4470587 0 0 0 26.912109 186.23633 A 2.4470587 2.4470587 0 0 0 30.255859 185.3418 A 2.4470587 2.4470587 0 0 0 30.5625 184 L 25.873047 184 z M 54.025391 184 A 2.0705881 2.0705881 0 0 0 53.128906 184.68945 A 2.0705881 2.0705881 0 0 0 53.886719 187.51758 A 2.0705881 2.0705881 0 0 0 56.714844 186.75977 A 2.0705881 2.0705881 0 0 0 56.035156 184 L 54.025391 184 z M 97.376953 184 A 1.317647 1.317647 0 0 0 97.439453 184.08203 A 1.317647 1.317647 0 0 0 98.716797 184 L 97.376953 184 z M 81.267578 185.69727 A 1.6941175 1.6941175 0 0 0 80.238281 186.48633 A 1.6941175 1.6941175 0 0 0 80.859375 188.80078 A 1.6941175 1.6941175 0 0 0 83.173828 188.17969 A 1.6941175 1.6941175 0 0 0 82.552734 185.86523 A 1.6941175 1.6941175 0 0 0 81.267578 185.69727 z M 13.941406 186.77539 C 12.900651 187.98213 12.210581 189.49998 12.041016 191.17969 A 2.8235292 2.8235292 0 0 0 14.189453 189.92188 A 2.8235292 2.8235292 0 0 0 13.941406 186.77539 z M 108.14844 187.66797 A 1.317647 1.317647 0 0 0 107.34961 188.28125 A 1.317647 1.317647 0 0 0 107.83203 190.08203 A 1.317647 1.317647 0 0 0 109.63086 189.59961 A 1.317647 1.317647 0 0 0 109.14844 187.79883 A 1.317647 1.317647 0 0 0 108.14844 187.66797 z M 37.896484 187.75391 A 2.4470587 2.4470587 0 0 0 36.410156 188.89453 A 2.4470587 2.4470587 0 0 0 37.304688 192.23633 A 2.4470587 2.4470587 0 0 0 40.648438 191.3418 A 2.4470587 2.4470587 0 0 0 39.751953 187.99805 A 2.4470587 2.4470587 0 0 0 37.896484 187.75391 z M 64.777344 189.72461 A 2.0705881 2.0705881 0 0 0 63.519531 190.68945 A 2.0705881 2.0705881 0 0 0 64.277344 193.51758 A 2.0705881 2.0705881 0 0 0 67.107422 192.75977 A 2.0705881 2.0705881 0 0 0 66.349609 189.93164 A 2.0705881 2.0705881 0 0 0 64.777344 189.72461 z M 91.660156 191.69727 A 1.6941175 1.6941175 0 0 0 90.630859 192.48633 A 1.6941175 1.6941175 0 0 0 91.251953 194.80078 A 1.6941175 1.6941175 0 0 0 93.564453 194.17969 A 1.6941175 1.6941175 0 0 0 92.945312 191.86523 A 1.6941175 1.6941175 0 0 0 91.660156 191.69727 z M 21.40625 191.7832 A 2.8235292 2.8235292 0 0 0 19.691406 193.09766 A 2.8235292 2.8235292 0 0 0 20.724609 196.95508 A 2.8235292 2.8235292 0 0 0 24.582031 195.92188 A 2.8235292 2.8235292 0 0 0 23.548828 192.06445 A 2.8235292 2.8235292 0 0 0 21.40625 191.7832 z M 48.287109 193.75391 A 2.4470587 2.4470587 0 0 0 46.802734 194.89453 A 2.4470587 2.4470587 0 0 0 47.697266 198.23633 A 2.4470587 2.4470587 0 0 0 51.041016 197.3418 A 2.4470587 2.4470587 0 0 0 50.144531 193.99805 A 2.4470587 2.4470587 0 0 0 48.287109 193.75391 z M 75.169922 195.72461 A 2.0705881 2.0705881 0 0 0 73.912109 196.68945 A 2.0705881 2.0705881 0 0 0 74.669922 199.51758 A 2.0705881 2.0705881 0 0 0 77.498047 198.75977 A 2.0705881 2.0705881 0 0 0 76.740234 195.93164 A 2.0705881 2.0705881 0 0 0 75.169922 195.72461 z M 102.05273 197.69727 A 1.6941175 1.6941175 0 0 0 101.02344 198.48633 A 1.6941175 1.6941175 0 0 0 101.64258 200.80078 A 1.6941175 1.6941175 0 0 0 103.95703 200.17969 A 1.6941175 1.6941175 0 0 0 103.33789 197.86523 A 1.6941175 1.6941175 0 0 0 102.05273 197.69727 z M 31.798828 197.7832 A 2.8235292 2.8235292 0 0 0 30.083984 199.09766 A 2.8235292 2.8235292 0 0 0 31.117188 202.95508 A 2.8235292 2.8235292 0 0 0 34.974609 201.92188 A 2.8235292 2.8235292 0 0 0 33.941406 198.06445 A 2.8235292 2.8235292 0 0 0 31.798828 197.7832 z M 58.679688 199.75391 A 2.4470587 2.4470587 0 0 0 57.193359 200.89453 A 2.4470587 2.4470587 0 0 0 58.089844 204.23633 A 2.4470587 2.4470587 0 0 0 61.433594 203.3418 A 2.4470587 2.4470587 0 0 0 60.537109 199.99805 A 2.4470587 2.4470587 0 0 0 58.679688 199.75391 z M 85.5625 201.72461 A 2.0705881 2.0705881 0 0 0 84.304688 202.68945 A 2.0705881 2.0705881 0 0 0 85.0625 205.51758 A 2.0705881 2.0705881 0 0 0 87.890625 204.75977 A 2.0705881 2.0705881 0 0 0 87.132812 201.93164 A 2.0705881 2.0705881 0 0 0 85.5625 201.72461 z M 15.314453 201.83398 A 3.1764708 3.1764708 0 0 0 13.384766 203.31445 A 3.1764708 3.1764708 0 0 0 14.548828 207.65234 A 3.1764708 3.1764708 0 0 0 18.886719 206.49023 A 3.1764708 3.1764708 0 0 0 17.724609 202.15039 A 3.1764708 3.1764708 0 0 0 15.314453 201.83398 z M 112.44336 203.69727 A 1.6941175 1.6941175 0 0 0 111.41602 204.48633 A 1.6941175 1.6941175 0 0 0 112.03516 206.80078 A 1.6941175 1.6941175 0 0 0 114.34961 206.17969 A 1.6941175 1.6941175 0 0 0 113.73047 203.86523 A 1.6941175 1.6941175 0 0 0 112.44336 203.69727 z M 42.189453 203.7832 A 2.8235292 2.8235292 0 0 0 40.476562 205.09766 A 2.8235292 2.8235292 0 0 0 41.509766 208.95508 A 2.8235292 2.8235292 0 0 0 45.367188 207.92188 A 2.8235292 2.8235292 0 0 0 44.332031 204.06445 A 2.8235292 2.8235292 0 0 0 42.189453 203.7832 z M 69.072266 205.75391 A 2.4470587 2.4470587 0 0 0 67.585938 206.89453 A 2.4470587 2.4470587 0 0 0 68.482422 210.23633 A 2.4470587 2.4470587 0 0 0 71.824219 209.3418 A 2.4470587 2.4470587 0 0 0 70.929688 205.99805 A 2.4470587 2.4470587 0 0 0 69.072266 205.75391 z M 95.955078 207.72461 A 2.0705881 2.0705881 0 0 0 94.697266 208.68945 A 2.0705881 2.0705881 0 0 0 95.455078 211.51758 A 2.0705881 2.0705881 0 0 0 98.283203 210.75977 A 2.0705881 2.0705881 0 0 0 97.525391 207.93164 A 2.0705881 2.0705881 0 0 0 95.955078 207.72461 z M 25.707031 207.83398 A 3.1764708 3.1764708 0 0 0 23.777344 209.31445 A 3.1764708 3.1764708 0 0 0 24.941406 213.65234 A 3.1764708 3.1764708 0 0 0 29.279297 212.49023 A 3.1764708 3.1764708 0 0 0 28.117188 208.15039 A 3.1764708 3.1764708 0 0 0 25.707031 207.83398 z M 52.582031 209.7832 A 2.8235292 2.8235292 0 0 0 50.869141 211.09766 A 2.8235292 2.8235292 0 0 0 51.902344 214.95508 A 2.8235292 2.8235292 0 0 0 55.757812 213.92188 A 2.8235292 2.8235292 0 0 0 54.724609 210.06445 A 2.8235292 2.8235292 0 0 0 52.582031 209.7832 z M 79.464844 211.75391 A 2.4470587 2.4470587 0 0 0 77.978516 212.89453 A 2.4470587 2.4470587 0 0 0 78.875 216.23633 A 2.4470587 2.4470587 0 0 0 82.216797 215.3418 A 2.4470587 2.4470587 0 0 0 81.322266 211.99805 A 2.4470587 2.4470587 0 0 0 79.464844 211.75391 z M 12 212.2832 L 12 218.00195 A 3.5529413 3.5529413 0 0 0 13.212891 217.07031 A 3.5529413 3.5529413 0 0 0 12 212.2832 z M 106.34766 213.72461 A 2.0705881 2.0705881 0 0 0 105.08984 214.68945 A 2.0705881 2.0705881 0 0 0 105.84766 217.51758 A 2.0705881 2.0705881 0 0 0 108.67578 216.75977 A 2.0705881 2.0705881 0 0 0 107.91797 213.93164 A 2.0705881 2.0705881 0 0 0 106.34766 213.72461 z M 36.099609 213.83398 A 3.1764708 3.1764708 0 0 0 34.169922 215.31445 A 3.1764708 3.1764708 0 0 0 35.332031 219.65234 A 3.1764708 3.1764708 0 0 0 39.671875 218.49023 A 3.1764708 3.1764708 0 0 0 38.509766 214.15039 A 3.1764708 3.1764708 0 0 0 36.099609 213.83398 z M 62.974609 215.7832 A 2.8235292 2.8235292 0 0 0 61.259766 217.09766 A 2.8235292 2.8235292 0 0 0 62.294922 220.95508 A 2.8235292 2.8235292 0 0 0 66.150391 219.92188 A 2.8235292 2.8235292 0 0 0 65.117188 216.06445 A 2.8235292 2.8235292 0 0 0 62.974609 215.7832 z M 89.857422 217.75391 A 2.4470587 2.4470587 0 0 0 88.371094 218.89453 A 2.4470587 2.4470587 0 0 0 89.267578 222.23633 A 2.4470587 2.4470587 0 0 0 92.609375 221.3418 A 2.4470587 2.4470587 0 0 0 91.714844 217.99805 A 2.4470587 2.4470587 0 0 0 89.857422 217.75391 z M 19.609375 217.86328 A 3.5529413 3.5529413 0 0 0 17.451172 219.51758 A 3.5529413 3.5529413 0 0 0 18.751953 224.37109 A 3.5529413 3.5529413 0 0 0 23.605469 223.07031 A 3.5529413 3.5529413 0 0 0 22.304688 218.2168 A 3.5529413 3.5529413 0 0 0 19.609375 217.86328 z M 46.492188 219.83398 A 3.1764708 3.1764708 0 0 0 44.5625 221.31445 A 3.1764708 3.1764708 0 0 0 45.724609 225.65234 A 3.1764708 3.1764708 0 0 0 50.064453 224.49023 A 3.1764708 3.1764708 0 0 0 48.902344 220.15039 A 3.1764708 3.1764708 0 0 0 46.492188 219.83398 z M 116 220.29102 A 2.0705881 2.0705881 0 0 0 115.48242 220.68945 A 2.0705881 2.0705881 0 0 0 116 223.20508 L 116 220.29102 z M 73.367188 221.7832 A 2.8235292 2.8235292 0 0 0 71.652344 223.09766 A 2.8235292 2.8235292 0 0 0 72.685547 226.95508 A 2.8235292 2.8235292 0 0 0 76.542969 225.92188 A 2.8235292 2.8235292 0 0 0 75.509766 222.06445 A 2.8235292 2.8235292 0 0 0 73.367188 221.7832 z M 100.25 223.75391 A 2.4470587 2.4470587 0 0 0 98.763672 224.89453 A 2.4470587 2.4470587 0 0 0 99.658203 228.23633 A 2.4470587 2.4470587 0 0 0 103.00195 227.3418 A 2.4470587 2.4470587 0 0 0 102.10547 223.99805 A 2.4470587 2.4470587 0 0 0 100.25 223.75391 z M 30.001953 223.86328 A 3.5529413 3.5529413 0 0 0 27.84375 225.51758 A 3.5529413 3.5529413 0 0 0 29.144531 230.37109 A 3.5529413 3.5529413 0 0 0 33.998047 229.07031 A 3.5529413 3.5529413 0 0 0 32.697266 224.2168 A 3.5529413 3.5529413 0 0 0 30.001953 223.86328 z M 56.882812 225.83398 A 3.1764708 3.1764708 0 0 0 54.955078 227.31445 A 3.1764708 3.1764708 0 0 0 56.117188 231.65234 A 3.1764708 3.1764708 0 0 0 60.457031 230.49023 A 3.1764708 3.1764708 0 0 0 59.294922 226.15039 A 3.1764708 3.1764708 0 0 0 56.882812 225.83398 z M 83.759766 227.7832 A 2.8235292 2.8235292 0 0 0 82.044922 229.09766 A 2.8235292 2.8235292 0 0 0 83.078125 232.95508 A 2.8235292 2.8235292 0 0 0 86.935547 231.92188 A 2.8235292 2.8235292 0 0 0 85.902344 228.06445 A 2.8235292 2.8235292 0 0 0 83.759766 227.7832 z M 13.511719 227.89062 A 3.9294119 3.9294119 0 0 0 12 229.05078 L 12 234.35352 A 3.9294119 3.9294119 0 0 0 12.564453 235.08984 A 3.9294119 3.9294119 0 0 0 17.931641 233.65039 A 3.9294119 3.9294119 0 0 0 16.494141 228.2832 A 3.9294119 3.9294119 0 0 0 13.511719 227.89062 z M 110.64258 229.75391 A 2.4470587 2.4470587 0 0 0 109.15625 230.89453 A 2.4470587 2.4470587 0 0 0 110.05078 234.23633 A 2.4470587 2.4470587 0 0 0 113.39453 233.3418 A 2.4470587 2.4470587 0 0 0 112.49805 229.99805 A 2.4470587 2.4470587 0 0 0 110.64258 229.75391 z M 40.394531 229.86328 A 3.5529413 3.5529413 0 0 0 38.236328 231.51758 A 3.5529413 3.5529413 0 0 0 39.537109 236.37109 A 3.5529413 3.5529413 0 0 0 44.390625 235.07031 A 3.5529413 3.5529413 0 0 0 43.089844 230.2168 A 3.5529413 3.5529413 0 0 0 40.394531 229.86328 z M 67.275391 231.83398 A 3.1764708 3.1764708 0 0 0 65.347656 233.31445 A 3.1764708 3.1764708 0 0 0 66.509766 237.65234 A 3.1764708 3.1764708 0 0 0 70.849609 236.49023 A 3.1764708 3.1764708 0 0 0 69.685547 232.15039 A 3.1764708 3.1764708 0 0 0 67.275391 231.83398 z M 94.152344 233.7832 A 2.8235292 2.8235292 0 0 0 92.4375 235.09766 A 2.8235292 2.8235292 0 0 0 93.470703 238.95508 A 2.8235292 2.8235292 0 0 0 97.328125 237.92188 A 2.8235292 2.8235292 0 0 0 96.294922 234.06445 A 2.8235292 2.8235292 0 0 0 94.152344 233.7832 z M 23.904297 233.89062 A 3.9294119 3.9294119 0 0 0 21.517578 235.72266 A 3.9294119 3.9294119 0 0 0 22.957031 241.08984 A 3.9294119 3.9294119 0 0 0 28.324219 239.65039 A 3.9294119 3.9294119 0 0 0 26.886719 234.2832 A 3.9294119 3.9294119 0 0 0 23.904297 233.89062 z M 50.787109 235.86328 A 3.5529413 3.5529413 0 0 0 48.628906 237.51758 A 3.5529413 3.5529413 0 0 0 49.929688 242.37109 A 3.5529413 3.5529413 0 0 0 54.783203 241.07031 A 3.5529413 3.5529413 0 0 0 53.482422 236.2168 A 3.5529413 3.5529413 0 0 0 50.787109 235.86328 z M 77.667969 237.83398 A 3.1764708 3.1764708 0 0 0 75.740234 239.31445 A 3.1764708 3.1764708 0 0 0 76.902344 243.65234 A 3.1764708 3.1764708 0 0 0 81.242188 242.49023 A 3.1764708 3.1764708 0 0 0 80.078125 238.15039 A 3.1764708 3.1764708 0 0 0 77.667969 237.83398 z M 12 239.58984 L 12 244.42969 A 4.3058825 4.3058825 0 0 0 12.257812 244.23242 A 4.3058825 4.3058825 0 0 0 12 239.58984 z M 104.54492 239.7832 A 2.8235292 2.8235292 0 0 0 102.83008 241.09766 A 2.8235292 2.8235292 0 0 0 103.86328 244.95508 A 2.8235292 2.8235292 0 0 0 107.7207 243.92188 A 2.8235292 2.8235292 0 0 0 106.6875 240.06445 A 2.8235292 2.8235292 0 0 0 104.54492 239.7832 z M 34.296875 239.89062 A 3.9294119 3.9294119 0 0 0 31.910156 241.72266 A 3.9294119 3.9294119 0 0 0 33.349609 247.08984 A 3.9294119 3.9294119 0 0 0 38.716797 245.65039 A 3.9294119 3.9294119 0 0 0 37.277344 240.2832 A 3.9294119 3.9294119 0 0 0 34.296875 239.89062 z M 61.177734 241.86328 A 3.5529413 3.5529413 0 0 0 59.021484 243.51758 A 3.5529413 3.5529413 0 0 0 60.322266 248.37109 A 3.5529413 3.5529413 0 0 0 65.175781 247.07031 A 3.5529413 3.5529413 0 0 0 63.875 242.2168 A 3.5529413 3.5529413 0 0 0 61.177734 241.86328 z M 88.060547 243.83398 A 3.1764708 3.1764708 0 0 0 86.130859 245.31445 A 3.1764708 3.1764708 0 0 0 87.294922 249.65234 A 3.1764708 3.1764708 0 0 0 91.632812 248.49023 A 3.1764708 3.1764708 0 0 0 90.470703 244.15039 A 3.1764708 3.1764708 0 0 0 88.060547 243.83398 z M 17.806641 243.91992 A 4.3058825 4.3058825 0 0 0 15.191406 245.92578 A 4.3058825 4.3058825 0 0 0 16.767578 251.80859 A 4.3058825 4.3058825 0 0 0 22.650391 250.23242 A 4.3058825 4.3058825 0 0 0 21.074219 244.34961 A 4.3058825 4.3058825 0 0 0 17.806641 243.91992 z M 114.93555 245.7832 A 2.8235292 2.8235292 0 0 0 113.22266 247.09766 A 2.8235292 2.8235292 0 0 0 114.25586 250.95508 A 2.8235292 2.8235292 0 0 0 116 251.18359 L 116 245.92383 A 2.8235292 2.8235292 0 0 0 114.93555 245.7832 z M 44.689453 245.89062 A 3.9294119 3.9294119 0 0 0 42.302734 247.72266 A 3.9294119 3.9294119 0 0 0 43.740234 253.08984 A 3.9294119 3.9294119 0 0 0 49.109375 251.65039 A 3.9294119 3.9294119 0 0 0 47.669922 246.2832 A 3.9294119 3.9294119 0 0 0 44.689453 245.89062 z M 71.570312 247.86328 A 3.5529413 3.5529413 0 0 0 69.414062 249.51758 A 3.5529413 3.5529413 0 0 0 70.714844 254.37109 A 3.5529413 3.5529413 0 0 0 75.566406 253.07031 A 3.5529413 3.5529413 0 0 0 74.267578 248.2168 A 3.5529413 3.5529413 0 0 0 71.570312 247.86328 z M 98.453125 249.83398 A 3.1764708 3.1764708 0 0 0 96.523438 251.31445 A 3.1764708 3.1764708 0 0 0 97.6875 255.65234 A 3.1764708 3.1764708 0 0 0 102.02539 254.49023 A 3.1764708 3.1764708 0 0 0 100.86328 250.15039 A 3.1764708 3.1764708 0 0 0 98.453125 249.83398 z M 28.199219 249.91992 A 4.3058825 4.3058825 0 0 0 25.583984 251.92578 A 4.3058825 4.3058825 0 0 0 27.160156 257.80859 A 4.3058825 4.3058825 0 0 0 33.042969 256.23242 A 4.3058825 4.3058825 0 0 0 31.466797 250.34961 A 4.3058825 4.3058825 0 0 0 28.199219 249.91992 z M 55.082031 251.89062 A 3.9294119 3.9294119 0 0 0 52.695312 253.72266 A 3.9294119 3.9294119 0 0 0 54.132812 259.08984 A 3.9294119 3.9294119 0 0 0 59.501953 257.65039 A 3.9294119 3.9294119 0 0 0 58.0625 252.2832 A 3.9294119 3.9294119 0 0 0 55.082031 251.89062 z M 12.921875 253.78906 A 4.682353 4.682353 0 0 0 12 254.03516 L 12 262.90625 A 4.682353 4.682353 0 0 0 16.976562 260.8125 A 4.682353 4.682353 0 0 0 15.261719 254.41602 A 4.682353 4.682353 0 0 0 12.921875 253.78906 z M 81.962891 253.86328 A 3.5529413 3.5529413 0 0 0 79.806641 255.51758 A 3.5529413 3.5529413 0 0 0 81.105469 260.37109 A 3.5529413 3.5529413 0 0 0 85.958984 259.07031 A 3.5529413 3.5529413 0 0 0 84.658203 254.2168 A 3.5529413 3.5529413 0 0 0 81.962891 253.86328 z M 108.8457 255.83398 A 3.1764708 3.1764708 0 0 0 106.91602 257.31445 A 3.1764708 3.1764708 0 0 0 108.07812 261.65234 A 3.1764708 3.1764708 0 0 0 112.41797 260.49023 A 3.1764708 3.1764708 0 0 0 111.25586 256.15039 A 3.1764708 3.1764708 0 0 0 108.8457 255.83398 z M 38.591797 255.91992 A 4.3058825 4.3058825 0 0 0 35.976562 257.92578 A 4.3058825 4.3058825 0 0 0 37.552734 263.80859 A 4.3058825 4.3058825 0 0 0 43.435547 262.23242 A 4.3058825 4.3058825 0 0 0 41.859375 256.34961 A 4.3058825 4.3058825 0 0 0 38.591797 255.91992 z M 65.472656 257.89062 A 3.9294119 3.9294119 0 0 0 63.087891 259.72266 A 3.9294119 3.9294119 0 0 0 64.525391 265.08984 A 3.9294119 3.9294119 0 0 0 69.892578 263.65039 A 3.9294119 3.9294119 0 0 0 68.455078 258.2832 A 3.9294119 3.9294119 0 0 0 65.472656 257.89062 z M 23.3125 259.78906 A 4.682353 4.682353 0 0 0 19.257812 262.13086 A 4.682353 4.682353 0 0 0 20.972656 268.52539 A 4.682353 4.682353 0 0 0 27.369141 266.8125 A 4.682353 4.682353 0 0 0 25.654297 260.41602 A 4.682353 4.682353 0 0 0 23.3125 259.78906 z M 92.355469 259.86328 A 3.5529413 3.5529413 0 0 0 90.197266 261.51758 A 3.5529413 3.5529413 0 0 0 91.498047 266.37109 A 3.5529413 3.5529413 0 0 0 96.351562 265.07031 A 3.5529413 3.5529413 0 0 0 95.050781 260.2168 A 3.5529413 3.5529413 0 0 0 92.355469 259.86328 z M 48.984375 261.91992 A 4.3058825 4.3058825 0 0 0 46.369141 263.92578 A 4.3058825 4.3058825 0 0 0 47.945312 269.80859 A 4.3058825 4.3058825 0 0 0 53.826172 268.23242 A 4.3058825 4.3058825 0 0 0 52.251953 262.34961 A 4.3058825 4.3058825 0 0 0 48.984375 261.91992 z M 75.865234 263.89062 A 3.9294119 3.9294119 0 0 0 73.480469 265.72266 A 3.9294119 3.9294119 0 0 0 74.917969 271.08984 A 3.9294119 3.9294119 0 0 0 80.285156 269.65039 A 3.9294119 3.9294119 0 0 0 78.847656 264.2832 A 3.9294119 3.9294119 0 0 0 75.865234 263.89062 z M 33.705078 265.78906 A 4.682353 4.682353 0 0 0 29.650391 268.13086 A 4.682353 4.682353 0 0 0 31.365234 274.52539 A 4.682353 4.682353 0 0 0 37.761719 272.8125 A 4.682353 4.682353 0 0 0 36.046875 266.41602 A 4.682353 4.682353 0 0 0 33.705078 265.78906 z M 102.74805 265.86328 A 3.5529413 3.5529413 0 0 0 100.58984 267.51758 A 3.5529413 3.5529413 0 0 0 101.89062 272.37109 A 3.5529413 3.5529413 0 0 0 106.74414 271.07031 A 3.5529413 3.5529413 0 0 0 105.44336 266.2168 A 3.5529413 3.5529413 0 0 0 102.74805 265.86328 z M 59.375 267.91992 A 4.3058825 4.3058825 0 0 0 56.761719 269.92578 A 4.3058825 4.3058825 0 0 0 58.337891 275.80859 A 4.3058825 4.3058825 0 0 0 64.21875 274.23242 A 4.3058825 4.3058825 0 0 0 62.642578 268.34961 A 4.3058825 4.3058825 0 0 0 59.375 267.91992 z M 17.3125 269.80469 A 5.0588236 5.0588236 0 0 0 12.931641 272.33398 A 5.0588236 5.0588236 0 0 0 14.783203 279.24414 A 5.0588236 5.0588236 0 0 0 21.695312 277.39258 A 5.0588236 5.0588236 0 0 0 19.84375 270.48242 A 5.0588236 5.0588236 0 0 0 17.3125 269.80469 z M 86.257812 269.89062 A 3.9294119 3.9294119 0 0 0 83.871094 271.72266 A 3.9294119 3.9294119 0 0 0 85.310547 277.08984 A 3.9294119 3.9294119 0 0 0 90.677734 275.65039 A 3.9294119 3.9294119 0 0 0 89.240234 270.2832 A 3.9294119 3.9294119 0 0 0 86.257812 269.89062 z M 44.097656 271.78906 A 4.682353 4.682353 0 0 0 40.042969 274.13086 A 4.682353 4.682353 0 0 0 41.757812 280.52539 A 4.682353 4.682353 0 0 0 48.152344 278.8125 A 4.682353 4.682353 0 0 0 46.439453 272.41602 A 4.682353 4.682353 0 0 0 44.097656 271.78906 z M 113.14062 271.86328 A 3.5529413 3.5529413 0 0 0 110.98242 273.51758 A 3.5529413 3.5529413 0 0 0 112.2832 278.37109 A 3.5529413 3.5529413 0 0 0 116 277.94336 L 116 272.3418 A 3.5529413 3.5529413 0 0 0 115.83594 272.2168 A 3.5529413 3.5529413 0 0 0 113.14062 271.86328 z M 69.767578 273.91992 A 4.3058825 4.3058825 0 0 0 67.154297 275.92578 A 4.3058825 4.3058825 0 0 0 68.730469 281.80859 A 4.3058825 4.3058825 0 0 0 74.611328 280.23242 A 4.3058825 4.3058825 0 0 0 73.035156 274.34961 A 4.3058825 4.3058825 0 0 0 69.767578 273.91992 z M 27.705078 275.80469 A 5.0588236 5.0588236 0 0 0 23.324219 278.33398 A 5.0588236 5.0588236 0 0 0 25.175781 285.24414 A 5.0588236 5.0588236 0 0 0 32.085938 283.39258 A 5.0588236 5.0588236 0 0 0 30.234375 276.48242 A 5.0588236 5.0588236 0 0 0 27.705078 275.80469 z M 96.650391 275.89062 A 3.9294119 3.9294119 0 0 0 94.263672 277.72266 A 3.9294119 3.9294119 0 0 0 95.703125 283.08984 A 3.9294119 3.9294119 0 0 0 101.07031 281.65039 A 3.9294119 3.9294119 0 0 0 99.632812 276.2832 A 3.9294119 3.9294119 0 0 0 96.650391 275.89062 z M 54.490234 277.78906 A 4.682353 4.682353 0 0 0 50.435547 280.13086 A 4.682353 4.682353 0 0 0 52.148438 286.52539 A 4.682353 4.682353 0 0 0 58.544922 284.8125 A 4.682353 4.682353 0 0 0 56.832031 278.41602 A 4.682353 4.682353 0 0 0 54.490234 277.78906 z M 80.160156 279.91992 A 4.3058825 4.3058825 0 0 0 77.546875 281.92578 A 4.3058825 4.3058825 0 0 0 79.121094 287.80859 A 4.3058825 4.3058825 0 0 0 80.576172 288 L 82.699219 288 A 4.3058825 4.3058825 0 0 0 85.003906 286.23242 A 4.3058825 4.3058825 0 0 0 83.427734 280.34961 A 4.3058825 4.3058825 0 0 0 80.160156 279.91992 z M 12 280.00391 C 12.001495 283.13108 13.782694 285.82104 16.386719 287.13672 A 5.4352942 5.4352942 0 0 0 14.03125 280.54883 A 5.4352942 5.4352942 0 0 0 12 280.00391 z M 38.097656 281.80469 A 5.0588236 5.0588236 0 0 0 33.716797 284.33398 A 5.0588236 5.0588236 0 0 0 33.34375 288 L 42.998047 288 A 5.0588236 5.0588236 0 0 0 40.626953 282.48242 A 5.0588236 5.0588236 0 0 0 38.097656 281.80469 z M 107.04297 281.89062 A 3.9294119 3.9294119 0 0 0 104.65625 283.72266 A 3.9294119 3.9294119 0 0 0 105.25977 288 L 108 288 C 109.33396 288 110.58772 287.67234 111.69141 287.09961 A 3.9294119 3.9294119 0 0 0 110.02344 282.2832 A 3.9294119 3.9294119 0 0 0 107.04297 281.89062 z M 64.882812 283.78906 A 4.682353 4.682353 0 0 0 60.828125 286.13086 A 4.682353 4.682353 0 0 0 60.328125 288 L 69.521484 288 A 4.682353 4.682353 0 0 0 67.224609 284.41602 A 4.682353 4.682353 0 0 0 64.882812 283.78906 z M 21.705078 285.82031 A 5.4352942 5.4352942 0 0 0 17.837891 287.69922 C 18.525832 287.89079 19.249351 288 20 288 L 26.03125 288 A 5.4352942 5.4352942 0 0 0 24.423828 286.54883 A 5.4352942 5.4352942 0 0 0 21.705078 285.82031 z M 90.552734 285.91992 A 4.3058825 4.3058825 0 0 0 87.9375 287.92578 A 4.3058825 4.3058825 0 0 0 87.927734 288 L 95.427734 288 A 4.3058825 4.3058825 0 0 0 93.820312 286.34961 A 4.3058825 4.3058825 0 0 0 90.552734 285.91992 z M 48.490234 287.80469 A 5.0588236 5.0588236 0 0 0 47.761719 288 L 49.21875 288 A 5.0588236 5.0588236 0 0 0 48.490234 287.80469 z "
           style="fill:#e01b24" /><path
           id="circle36512"
           d="M 20 184 C 18.731407 184 17.538214 184.30102 16.474609 184.82227 A 3.9294119 3.9294119 0 0 0 17.976562 189.7168 A 3.9294119 3.9294119 0 0 0 23.34375 188.27734 A 3.9294119 3.9294119 0 0 0 23.076172 184 L 20 184 z M 32.914062 184 A 4.3058825 4.3058825 0 0 0 34.179688 185.65039 A 4.3058825 4.3058825 0 0 0 40.0625 184.07422 A 4.3058825 4.3058825 0 0 0 40.09375 184 L 32.914062 184 z M 45.300781 184 A 4.3058825 4.3058825 0 0 0 42.996094 185.76758 A 4.3058825 4.3058825 0 0 0 44.572266 191.65039 A 4.3058825 4.3058825 0 0 0 50.453125 190.07422 A 4.3058825 4.3058825 0 0 0 48.878906 184.19141 A 4.3058825 4.3058825 0 0 0 47.423828 184 L 45.300781 184 z M 58.5625 184 A 4.682353 4.682353 0 0 0 60.775391 187.58398 A 4.682353 4.682353 0 0 0 67.171875 185.86914 A 4.682353 4.682353 0 0 0 67.763672 184 L 58.5625 184 z M 78.78125 184 A 5.0588236 5.0588236 0 0 0 80.238281 184 L 78.78125 184 z M 85.148438 184 A 5.0588236 5.0588236 0 0 0 87.373047 189.51758 A 5.0588236 5.0588236 0 0 0 94.283203 187.66602 A 5.0588236 5.0588236 0 0 0 94.800781 184 L 85.148438 184 z M 102.12695 184 A 5.4352942 5.4352942 0 0 0 103.57617 185.45117 A 5.4352942 5.4352942 0 0 0 110.16016 184.30273 C 109.47256 184.11137 108.75023 184 108 184 L 102.12695 184 z M 73.509766 184.8457 A 4.682353 4.682353 0 0 0 69.455078 187.1875 A 4.682353 4.682353 0 0 0 71.167969 193.58398 A 4.682353 4.682353 0 0 0 77.564453 191.86914 A 4.682353 4.682353 0 0 0 75.851562 185.47461 A 4.682353 4.682353 0 0 0 73.509766 184.8457 z M 111.73828 184.92383 A 5.4352942 5.4352942 0 0 0 113.96875 191.45117 A 5.4352942 5.4352942 0 0 0 116 191.99609 C 115.99853 188.9184 114.27514 186.26146 111.73828 184.92383 z M 100.29492 186.07812 A 5.0588236 5.0588236 0 0 0 95.914062 188.60742 A 5.0588236 5.0588236 0 0 0 97.765625 195.51758 A 5.0588236 5.0588236 0 0 0 104.67578 193.66602 A 5.0588236 5.0588236 0 0 0 102.82422 186.75586 A 5.0588236 5.0588236 0 0 0 100.29492 186.07812 z M 29.316406 188.51758 A 3.9294119 3.9294119 0 0 0 26.929688 190.34961 A 3.9294119 3.9294119 0 0 0 28.367188 195.7168 A 3.9294119 3.9294119 0 0 0 33.736328 194.27734 A 3.9294119 3.9294119 0 0 0 32.296875 188.91016 A 3.9294119 3.9294119 0 0 0 29.316406 188.51758 z M 56.001953 189.76172 A 4.3058825 4.3058825 0 0 0 53.388672 191.76758 A 4.3058825 4.3058825 0 0 0 54.964844 197.65039 A 4.3058825 4.3058825 0 0 0 60.845703 196.07422 A 4.3058825 4.3058825 0 0 0 59.269531 190.19141 A 4.3058825 4.3058825 0 0 0 56.001953 189.76172 z M 83.902344 190.8457 A 4.682353 4.682353 0 0 0 79.847656 193.1875 A 4.682353 4.682353 0 0 0 81.560547 199.58398 A 4.682353 4.682353 0 0 0 87.957031 197.86914 A 4.682353 4.682353 0 0 0 86.242188 191.47461 A 4.682353 4.682353 0 0 0 83.902344 190.8457 z M 110.6875 192.07812 A 5.0588236 5.0588236 0 0 0 106.30469 194.60742 A 5.0588236 5.0588236 0 0 0 108.15625 201.51758 A 5.0588236 5.0588236 0 0 0 115.06836 199.66602 A 5.0588236 5.0588236 0 0 0 113.2168 192.75586 A 5.0588236 5.0588236 0 0 0 110.6875 192.07812 z M 13.021484 193.27344 A 3.5529413 3.5529413 0 0 0 12 194.05664 L 12 199.57031 A 3.5529413 3.5529413 0 0 0 12.164062 199.7832 A 3.5529413 3.5529413 0 0 0 17.017578 198.48242 A 3.5529413 3.5529413 0 0 0 15.716797 193.62891 A 3.5529413 3.5529413 0 0 0 13.021484 193.27344 z M 39.708984 194.51758 A 3.9294119 3.9294119 0 0 0 37.322266 196.34961 A 3.9294119 3.9294119 0 0 0 38.759766 201.7168 A 3.9294119 3.9294119 0 0 0 44.128906 200.27734 A 3.9294119 3.9294119 0 0 0 42.689453 194.91016 A 3.9294119 3.9294119 0 0 0 39.708984 194.51758 z M 66.394531 195.76172 A 4.3058825 4.3058825 0 0 0 63.78125 197.76758 A 4.3058825 4.3058825 0 0 0 65.357422 203.65039 A 4.3058825 4.3058825 0 0 0 71.238281 202.07422 A 4.3058825 4.3058825 0 0 0 69.662109 196.19141 A 4.3058825 4.3058825 0 0 0 66.394531 195.76172 z M 94.294922 196.8457 A 4.682353 4.682353 0 0 0 90.238281 199.1875 A 4.682353 4.682353 0 0 0 91.953125 205.58398 A 4.682353 4.682353 0 0 0 98.349609 203.86914 A 4.682353 4.682353 0 0 0 96.634766 197.47461 A 4.682353 4.682353 0 0 0 94.294922 196.8457 z M 23.414062 199.27344 A 3.5529413 3.5529413 0 0 0 21.255859 200.92969 A 3.5529413 3.5529413 0 0 0 22.556641 205.7832 A 3.5529413 3.5529413 0 0 0 27.410156 204.48242 A 3.5529413 3.5529413 0 0 0 26.109375 199.62891 A 3.5529413 3.5529413 0 0 0 23.414062 199.27344 z M 50.099609 200.51758 A 3.9294119 3.9294119 0 0 0 47.714844 202.34961 A 3.9294119 3.9294119 0 0 0 49.152344 207.7168 A 3.9294119 3.9294119 0 0 0 54.519531 206.27734 A 3.9294119 3.9294119 0 0 0 53.082031 200.91016 A 3.9294119 3.9294119 0 0 0 50.099609 200.51758 z M 76.787109 201.76172 A 4.3058825 4.3058825 0 0 0 74.173828 203.76758 A 4.3058825 4.3058825 0 0 0 75.748047 209.65039 A 4.3058825 4.3058825 0 0 0 81.630859 208.07422 A 4.3058825 4.3058825 0 0 0 80.054688 202.19141 A 4.3058825 4.3058825 0 0 0 76.787109 201.76172 z M 104.6875 202.8457 A 4.682353 4.682353 0 0 0 100.63086 205.1875 A 4.682353 4.682353 0 0 0 102.3457 211.58398 A 4.682353 4.682353 0 0 0 108.74219 209.86914 A 4.682353 4.682353 0 0 0 107.02734 203.47461 A 4.682353 4.682353 0 0 0 104.6875 202.8457 z M 33.804688 205.27344 A 3.5529413 3.5529413 0 0 0 31.648438 206.92969 A 3.5529413 3.5529413 0 0 0 32.949219 211.7832 A 3.5529413 3.5529413 0 0 0 37.802734 210.48242 A 3.5529413 3.5529413 0 0 0 36.501953 205.62891 A 3.5529413 3.5529413 0 0 0 33.804688 205.27344 z M 60.492188 206.51758 A 3.9294119 3.9294119 0 0 0 58.107422 208.34961 A 3.9294119 3.9294119 0 0 0 59.544922 213.7168 A 3.9294119 3.9294119 0 0 0 64.912109 212.27734 A 3.9294119 3.9294119 0 0 0 63.474609 206.91016 A 3.9294119 3.9294119 0 0 0 60.492188 206.51758 z M 87.179688 207.76172 A 4.3058825 4.3058825 0 0 0 84.564453 209.76758 A 4.3058825 4.3058825 0 0 0 86.140625 215.65039 A 4.3058825 4.3058825 0 0 0 92.023438 214.07422 A 4.3058825 4.3058825 0 0 0 90.447266 208.19141 A 4.3058825 4.3058825 0 0 0 87.179688 207.76172 z M 115.07812 208.8457 A 4.682353 4.682353 0 0 0 111.02344 211.1875 A 4.682353 4.682353 0 0 0 112.73828 217.58398 A 4.682353 4.682353 0 0 0 116 217.96484 L 116 209.09375 A 4.682353 4.682353 0 0 0 115.07812 208.8457 z M 17.509766 210.0293 A 3.1764708 3.1764708 0 0 0 15.582031 211.50977 A 3.1764708 3.1764708 0 0 0 16.744141 215.84961 A 3.1764708 3.1764708 0 0 0 21.083984 214.68555 A 3.1764708 3.1764708 0 0 0 19.921875 210.34766 A 3.1764708 3.1764708 0 0 0 17.509766 210.0293 z M 44.197266 211.27344 A 3.5529413 3.5529413 0 0 0 42.041016 212.92969 A 3.5529413 3.5529413 0 0 0 43.341797 217.7832 A 3.5529413 3.5529413 0 0 0 48.193359 216.48242 A 3.5529413 3.5529413 0 0 0 46.894531 211.62891 A 3.5529413 3.5529413 0 0 0 44.197266 211.27344 z M 70.884766 212.51758 A 3.9294119 3.9294119 0 0 0 68.498047 214.34961 A 3.9294119 3.9294119 0 0 0 69.9375 219.7168 A 3.9294119 3.9294119 0 0 0 75.304688 218.27734 A 3.9294119 3.9294119 0 0 0 73.867188 212.91016 A 3.9294119 3.9294119 0 0 0 70.884766 212.51758 z M 97.572266 213.76172 A 4.3058825 4.3058825 0 0 0 94.957031 215.76758 A 4.3058825 4.3058825 0 0 0 96.533203 221.65039 A 4.3058825 4.3058825 0 0 0 102.41602 220.07422 A 4.3058825 4.3058825 0 0 0 100.83984 214.19141 A 4.3058825 4.3058825 0 0 0 97.572266 213.76172 z M 27.902344 216.0293 A 3.1764708 3.1764708 0 0 0 25.974609 217.50977 A 3.1764708 3.1764708 0 0 0 27.136719 221.84961 A 3.1764708 3.1764708 0 0 0 31.476562 220.68555 A 3.1764708 3.1764708 0 0 0 30.3125 216.34766 A 3.1764708 3.1764708 0 0 0 27.902344 216.0293 z M 54.589844 217.27344 A 3.5529413 3.5529413 0 0 0 52.433594 218.92969 A 3.5529413 3.5529413 0 0 0 53.732422 223.7832 A 3.5529413 3.5529413 0 0 0 58.585938 222.48242 A 3.5529413 3.5529413 0 0 0 57.285156 217.62891 A 3.5529413 3.5529413 0 0 0 54.589844 217.27344 z M 81.277344 218.51758 A 3.9294119 3.9294119 0 0 0 78.890625 220.34961 A 3.9294119 3.9294119 0 0 0 80.330078 225.7168 A 3.9294119 3.9294119 0 0 0 85.697266 224.27734 A 3.9294119 3.9294119 0 0 0 84.259766 218.91016 A 3.9294119 3.9294119 0 0 0 81.277344 218.51758 z M 107.96484 219.76172 A 4.3058825 4.3058825 0 0 0 105.34961 221.76758 A 4.3058825 4.3058825 0 0 0 106.92578 227.65039 A 4.3058825 4.3058825 0 0 0 112.80859 226.07422 A 4.3058825 4.3058825 0 0 0 111.23242 220.19141 A 4.3058825 4.3058825 0 0 0 107.96484 219.76172 z M 12 220.81641 L 12 226.07617 A 2.8235292 2.8235292 0 0 0 14.777344 224.90234 A 2.8235292 2.8235292 0 0 0 13.744141 221.04492 A 2.8235292 2.8235292 0 0 0 12 220.81641 z M 38.294922 222.0293 A 3.1764708 3.1764708 0 0 0 36.367188 223.50977 A 3.1764708 3.1764708 0 0 0 37.529297 227.84961 A 3.1764708 3.1764708 0 0 0 41.869141 226.68555 A 3.1764708 3.1764708 0 0 0 40.705078 222.34766 A 3.1764708 3.1764708 0 0 0 38.294922 222.0293 z M 64.982422 223.27344 A 3.5529413 3.5529413 0 0 0 62.824219 224.92969 A 3.5529413 3.5529413 0 0 0 64.125 229.7832 A 3.5529413 3.5529413 0 0 0 68.978516 228.48242 A 3.5529413 3.5529413 0 0 0 67.677734 223.62891 A 3.5529413 3.5529413 0 0 0 64.982422 223.27344 z M 91.669922 224.51758 A 3.9294119 3.9294119 0 0 0 89.283203 226.34961 A 3.9294119 3.9294119 0 0 0 90.722656 231.7168 A 3.9294119 3.9294119 0 0 0 96.089844 230.27734 A 3.9294119 3.9294119 0 0 0 94.650391 224.91016 A 3.9294119 3.9294119 0 0 0 91.669922 224.51758 z M 21.994141 226.76367 A 2.8235292 2.8235292 0 0 0 20.279297 228.07812 A 2.8235292 2.8235292 0 0 0 21.3125 231.93555 A 2.8235292 2.8235292 0 0 0 25.169922 230.90234 A 2.8235292 2.8235292 0 0 0 24.136719 227.04492 A 2.8235292 2.8235292 0 0 0 21.994141 226.76367 z M 116 227.57031 A 4.3058825 4.3058825 0 0 0 115.74219 227.76758 A 4.3058825 4.3058825 0 0 0 116 231.93164 L 116 227.57031 z M 48.6875 228.0293 A 3.1764708 3.1764708 0 0 0 46.757812 229.50977 A 3.1764708 3.1764708 0 0 0 47.921875 233.84961 A 3.1764708 3.1764708 0 0 0 52.259766 232.68555 A 3.1764708 3.1764708 0 0 0 51.097656 228.34766 A 3.1764708 3.1764708 0 0 0 48.6875 228.0293 z M 75.375 229.27344 A 3.5529413 3.5529413 0 0 0 73.216797 230.92969 A 3.5529413 3.5529413 0 0 0 74.517578 235.7832 A 3.5529413 3.5529413 0 0 0 79.371094 234.48242 A 3.5529413 3.5529413 0 0 0 78.070312 229.62891 A 3.5529413 3.5529413 0 0 0 75.375 229.27344 z M 102.0625 230.51758 A 3.9294119 3.9294119 0 0 0 99.675781 232.34961 A 3.9294119 3.9294119 0 0 0 101.11328 237.7168 A 3.9294119 3.9294119 0 0 0 106.48242 236.27734 A 3.9294119 3.9294119 0 0 0 105.04297 230.91016 A 3.9294119 3.9294119 0 0 0 102.0625 230.51758 z M 32.386719 232.76367 A 2.8235292 2.8235292 0 0 0 30.671875 234.07812 A 2.8235292 2.8235292 0 0 0 31.705078 237.93555 A 2.8235292 2.8235292 0 0 0 35.5625 236.90234 A 2.8235292 2.8235292 0 0 0 34.529297 233.04492 A 2.8235292 2.8235292 0 0 0 32.386719 232.76367 z M 59.080078 234.0293 A 3.1764708 3.1764708 0 0 0 57.150391 235.50977 A 3.1764708 3.1764708 0 0 0 58.314453 239.84961 A 3.1764708 3.1764708 0 0 0 62.652344 238.68555 A 3.1764708 3.1764708 0 0 0 61.490234 234.34766 A 3.1764708 3.1764708 0 0 0 59.080078 234.0293 z M 85.767578 235.27344 A 3.5529413 3.5529413 0 0 0 83.609375 236.92969 A 3.5529413 3.5529413 0 0 0 84.910156 241.7832 A 3.5529413 3.5529413 0 0 0 89.763672 240.48242 A 3.5529413 3.5529413 0 0 0 88.462891 235.62891 A 3.5529413 3.5529413 0 0 0 85.767578 235.27344 z M 112.45508 236.51758 A 3.9294119 3.9294119 0 0 0 110.06836 238.34961 A 3.9294119 3.9294119 0 0 0 111.50586 243.7168 A 3.9294119 3.9294119 0 0 0 116 242.94922 L 116 237.34375 A 3.9294119 3.9294119 0 0 0 115.43555 236.91016 A 3.9294119 3.9294119 0 0 0 112.45508 236.51758 z M 16.091797 237.51953 A 2.4470587 2.4470587 0 0 0 14.605469 238.6582 A 2.4470587 2.4470587 0 0 0 15.501953 242.00195 A 2.4470587 2.4470587 0 0 0 18.84375 241.10547 A 2.4470587 2.4470587 0 0 0 17.949219 237.76367 A 2.4470587 2.4470587 0 0 0 16.091797 237.51953 z M 42.779297 238.76367 A 2.8235292 2.8235292 0 0 0 41.064453 240.07812 A 2.8235292 2.8235292 0 0 0 42.097656 243.93555 A 2.8235292 2.8235292 0 0 0 45.955078 242.90234 A 2.8235292 2.8235292 0 0 0 44.921875 239.04492 A 2.8235292 2.8235292 0 0 0 42.779297 238.76367 z M 69.472656 240.0293 A 3.1764708 3.1764708 0 0 0 67.542969 241.50977 A 3.1764708 3.1764708 0 0 0 68.705078 245.84961 A 3.1764708 3.1764708 0 0 0 73.044922 244.68555 A 3.1764708 3.1764708 0 0 0 71.882812 240.34766 A 3.1764708 3.1764708 0 0 0 69.472656 240.0293 z M 96.160156 241.27344 A 3.5529413 3.5529413 0 0 0 94.001953 242.92969 A 3.5529413 3.5529413 0 0 0 95.302734 247.7832 A 3.5529413 3.5529413 0 0 0 100.15625 246.48242 A 3.5529413 3.5529413 0 0 0 98.855469 241.62891 A 3.5529413 3.5529413 0 0 0 96.160156 241.27344 z M 26.484375 243.51953 A 2.4470587 2.4470587 0 0 0 24.998047 244.6582 A 2.4470587 2.4470587 0 0 0 25.894531 248.00195 A 2.4470587 2.4470587 0 0 0 29.236328 247.10547 A 2.4470587 2.4470587 0 0 0 28.341797 243.76367 A 2.4470587 2.4470587 0 0 0 26.484375 243.51953 z M 53.171875 244.76367 A 2.8235292 2.8235292 0 0 0 51.457031 246.07812 A 2.8235292 2.8235292 0 0 0 52.490234 249.93555 A 2.8235292 2.8235292 0 0 0 56.347656 248.90234 A 2.8235292 2.8235292 0 0 0 55.314453 245.04492 A 2.8235292 2.8235292 0 0 0 53.171875 244.76367 z M 79.865234 246.0293 A 3.1764708 3.1764708 0 0 0 77.935547 247.50977 A 3.1764708 3.1764708 0 0 0 79.097656 251.84961 A 3.1764708 3.1764708 0 0 0 83.4375 250.68555 A 3.1764708 3.1764708 0 0 0 82.275391 246.34766 A 3.1764708 3.1764708 0 0 0 79.865234 246.0293 z M 106.55078 247.27344 A 3.5529413 3.5529413 0 0 0 104.39453 248.92969 A 3.5529413 3.5529413 0 0 0 105.69531 253.7832 A 3.5529413 3.5529413 0 0 0 110.54883 252.48242 A 3.5529413 3.5529413 0 0 0 109.24805 247.62891 A 3.5529413 3.5529413 0 0 0 106.55078 247.27344 z M 12 248.69336 L 12 251.70898 A 2.0705881 2.0705881 0 0 0 12.517578 251.31055 A 2.0705881 2.0705881 0 0 0 12 248.69336 z M 36.876953 249.51953 A 2.4470587 2.4470587 0 0 0 35.390625 250.6582 A 2.4470587 2.4470587 0 0 0 36.285156 254.00195 A 2.4470587 2.4470587 0 0 0 39.628906 253.10547 A 2.4470587 2.4470587 0 0 0 38.732422 249.76367 A 2.4470587 2.4470587 0 0 0 36.876953 249.51953 z M 63.5625 250.76367 A 2.8235292 2.8235292 0 0 0 61.849609 252.07812 A 2.8235292 2.8235292 0 0 0 62.882812 255.93555 A 2.8235292 2.8235292 0 0 0 66.740234 254.90234 A 2.8235292 2.8235292 0 0 0 65.705078 251.04492 A 2.8235292 2.8235292 0 0 0 63.5625 250.76367 z M 90.255859 252.0293 A 3.1764708 3.1764708 0 0 0 88.328125 253.50977 A 3.1764708 3.1764708 0 0 0 89.490234 257.84961 A 3.1764708 3.1764708 0 0 0 93.830078 256.68555 A 3.1764708 3.1764708 0 0 0 92.667969 252.34766 A 3.1764708 3.1764708 0 0 0 90.255859 252.0293 z M 116 253.99805 A 3.5529413 3.5529413 0 0 0 114.78711 254.92969 A 3.5529413 3.5529413 0 0 0 116 259.66797 L 116 253.99805 z M 20.582031 254.27539 A 2.0705881 2.0705881 0 0 0 19.324219 255.24023 A 2.0705881 2.0705881 0 0 0 20.082031 258.06836 A 2.0705881 2.0705881 0 0 0 22.910156 257.31055 A 2.0705881 2.0705881 0 0 0 22.152344 254.48242 A 2.0705881 2.0705881 0 0 0 20.582031 254.27539 z M 47.269531 255.51953 A 2.4470587 2.4470587 0 0 0 45.783203 256.6582 A 2.4470587 2.4470587 0 0 0 46.677734 260.00195 A 2.4470587 2.4470587 0 0 0 50.021484 259.10547 A 2.4470587 2.4470587 0 0 0 49.125 255.76367 A 2.4470587 2.4470587 0 0 0 47.269531 255.51953 z M 73.955078 256.76367 A 2.8235292 2.8235292 0 0 0 72.242188 258.07812 A 2.8235292 2.8235292 0 0 0 73.275391 261.93555 A 2.8235292 2.8235292 0 0 0 77.130859 260.90234 A 2.8235292 2.8235292 0 0 0 76.097656 257.04492 A 2.8235292 2.8235292 0 0 0 73.955078 256.76367 z M 100.64844 258.0293 A 3.1764708 3.1764708 0 0 0 98.720703 259.50977 A 3.1764708 3.1764708 0 0 0 99.882812 263.84961 A 3.1764708 3.1764708 0 0 0 104.22266 262.68555 A 3.1764708 3.1764708 0 0 0 103.05859 258.34766 A 3.1764708 3.1764708 0 0 0 100.64844 258.0293 z M 30.974609 260.27539 A 2.0705881 2.0705881 0 0 0 29.716797 261.24023 A 2.0705881 2.0705881 0 0 0 30.474609 264.06836 A 2.0705881 2.0705881 0 0 0 33.302734 263.31055 A 2.0705881 2.0705881 0 0 0 32.544922 260.48242 A 2.0705881 2.0705881 0 0 0 30.974609 260.27539 z M 57.660156 261.51953 A 2.4470587 2.4470587 0 0 0 56.175781 262.6582 A 2.4470587 2.4470587 0 0 0 57.070312 266.00195 A 2.4470587 2.4470587 0 0 0 60.414062 265.10547 A 2.4470587 2.4470587 0 0 0 59.517578 261.76367 A 2.4470587 2.4470587 0 0 0 57.660156 261.51953 z M 84.347656 262.76367 A 2.8235292 2.8235292 0 0 0 82.632812 264.07812 A 2.8235292 2.8235292 0 0 0 83.667969 267.93555 A 2.8235292 2.8235292 0 0 0 87.523438 266.90234 A 2.8235292 2.8235292 0 0 0 86.490234 263.04492 A 2.8235292 2.8235292 0 0 0 84.347656 262.76367 z M 111.04102 264.0293 A 3.1764708 3.1764708 0 0 0 109.11328 265.50977 A 3.1764708 3.1764708 0 0 0 110.27539 269.84961 A 3.1764708 3.1764708 0 0 0 114.61523 268.68555 A 3.1764708 3.1764708 0 0 0 113.45117 264.34766 A 3.1764708 3.1764708 0 0 0 111.04102 264.0293 z M 14.679688 265.03125 A 1.6941175 1.6941175 0 0 0 13.650391 265.82031 A 1.6941175 1.6941175 0 0 0 14.269531 268.13477 A 1.6941175 1.6941175 0 0 0 16.583984 267.51367 A 1.6941175 1.6941175 0 0 0 15.964844 265.19922 A 1.6941175 1.6941175 0 0 0 14.679688 265.03125 z M 41.365234 266.27539 A 2.0705881 2.0705881 0 0 0 40.109375 267.24023 A 2.0705881 2.0705881 0 0 0 40.867188 270.06836 A 2.0705881 2.0705881 0 0 0 43.695312 269.31055 A 2.0705881 2.0705881 0 0 0 42.9375 266.48242 A 2.0705881 2.0705881 0 0 0 41.365234 266.27539 z M 68.052734 267.51953 A 2.4470587 2.4470587 0 0 0 66.566406 268.6582 A 2.4470587 2.4470587 0 0 0 67.462891 272.00195 A 2.4470587 2.4470587 0 0 0 70.806641 271.10547 A 2.4470587 2.4470587 0 0 0 69.910156 267.76367 A 2.4470587 2.4470587 0 0 0 68.052734 267.51953 z M 94.740234 268.76367 A 2.8235292 2.8235292 0 0 0 93.025391 270.07812 A 2.8235292 2.8235292 0 0 0 94.058594 273.93555 A 2.8235292 2.8235292 0 0 0 97.916016 272.90234 A 2.8235292 2.8235292 0 0 0 96.882812 269.04492 A 2.8235292 2.8235292 0 0 0 94.740234 268.76367 z M 25.070312 271.03125 A 1.6941175 1.6941175 0 0 0 24.042969 271.82031 A 1.6941175 1.6941175 0 0 0 24.662109 274.13477 A 1.6941175 1.6941175 0 0 0 26.976562 273.51367 A 1.6941175 1.6941175 0 0 0 26.357422 271.19922 A 1.6941175 1.6941175 0 0 0 25.070312 271.03125 z M 51.757812 272.27539 A 2.0705881 2.0705881 0 0 0 50.501953 273.24023 A 2.0705881 2.0705881 0 0 0 51.259766 276.06836 A 2.0705881 2.0705881 0 0 0 54.087891 275.31055 A 2.0705881 2.0705881 0 0 0 53.330078 272.48242 A 2.0705881 2.0705881 0 0 0 51.757812 272.27539 z M 78.445312 273.51953 A 2.4470587 2.4470587 0 0 0 76.958984 274.6582 A 2.4470587 2.4470587 0 0 0 77.855469 278.00195 A 2.4470587 2.4470587 0 0 0 81.197266 277.10547 A 2.4470587 2.4470587 0 0 0 80.302734 273.76367 A 2.4470587 2.4470587 0 0 0 78.445312 273.51953 z M 105.13281 274.76367 A 2.8235292 2.8235292 0 0 0 103.41797 276.07812 A 2.8235292 2.8235292 0 0 0 104.45117 279.93555 A 2.8235292 2.8235292 0 0 0 108.30859 278.90234 A 2.8235292 2.8235292 0 0 0 107.27539 275.04492 A 2.8235292 2.8235292 0 0 0 105.13281 274.76367 z M 35.462891 277.03125 A 1.6941175 1.6941175 0 0 0 34.435547 277.82031 A 1.6941175 1.6941175 0 0 0 35.054688 280.13477 A 1.6941175 1.6941175 0 0 0 37.369141 279.51367 A 1.6941175 1.6941175 0 0 0 36.748047 277.19922 A 1.6941175 1.6941175 0 0 0 35.462891 277.03125 z M 62.150391 278.27539 A 2.0705881 2.0705881 0 0 0 60.892578 279.24023 A 2.0705881 2.0705881 0 0 0 61.650391 282.06836 A 2.0705881 2.0705881 0 0 0 64.480469 281.31055 A 2.0705881 2.0705881 0 0 0 63.722656 278.48242 A 2.0705881 2.0705881 0 0 0 62.150391 278.27539 z M 88.837891 279.51953 A 2.4470587 2.4470587 0 0 0 87.351562 280.6582 A 2.4470587 2.4470587 0 0 0 88.248047 284.00195 A 2.4470587 2.4470587 0 0 0 91.589844 283.10547 A 2.4470587 2.4470587 0 0 0 90.695312 279.76367 A 2.4470587 2.4470587 0 0 0 88.837891 279.51953 z M 115.52539 280.76367 A 2.8235292 2.8235292 0 0 0 113.81055 282.07812 A 2.8235292 2.8235292 0 0 0 114.18945 285.08008 C 115.15915 283.89825 115.79639 282.431 115.95898 280.82031 A 2.8235292 2.8235292 0 0 0 115.52539 280.76367 z M 19.167969 281.78711 A 1.317647 1.317647 0 0 0 18.369141 282.40039 A 1.317647 1.317647 0 0 0 18.851562 284.20117 A 1.317647 1.317647 0 0 0 20.650391 283.71875 A 1.317647 1.317647 0 0 0 20.167969 281.91797 A 1.317647 1.317647 0 0 0 19.167969 281.78711 z M 45.855469 283.03125 A 1.6941175 1.6941175 0 0 0 44.826172 283.82031 A 1.6941175 1.6941175 0 0 0 45.447266 286.13477 A 1.6941175 1.6941175 0 0 0 47.761719 285.51367 A 1.6941175 1.6941175 0 0 0 47.140625 283.19922 A 1.6941175 1.6941175 0 0 0 45.855469 283.03125 z M 72.542969 284.27539 A 2.0705881 2.0705881 0 0 0 71.285156 285.24023 A 2.0705881 2.0705881 0 0 0 71.990234 288 L 73.974609 288 A 2.0705881 2.0705881 0 0 0 74.871094 287.31055 A 2.0705881 2.0705881 0 0 0 74.113281 284.48242 A 2.0705881 2.0705881 0 0 0 72.542969 284.27539 z M 99.230469 285.51953 A 2.4470587 2.4470587 0 0 0 97.744141 286.6582 A 2.4470587 2.4470587 0 0 0 97.568359 288 L 102.27734 288 A 2.4470587 2.4470587 0 0 0 101.08789 285.76367 A 2.4470587 2.4470587 0 0 0 99.230469 285.51953 z M 29.560547 287.78711 A 1.317647 1.317647 0 0 0 29.283203 288 L 30.654297 288 A 1.317647 1.317647 0 0 0 30.560547 287.91797 A 1.317647 1.317647 0 0 0 29.560547 287.78711 z "
           style="fill:#3584e4" /></g><path
         id="circle46901"
         d="m 245.13457,-50.992268 a 0.75,0.75 0 0 1 -0.75,0.75 0.75,0.75 0 0 1 -0.75,-0.75 0.75,0.75 0 0 1 0.75,-0.75 0.75,0.75 0 0 1 0.75,0.75 z m -3,0 a 0.75,0.75 0 0 1 -0.75,0.75 0.75,0.75 0 0 1 -0.75,-0.75 0.75,0.75 0 0 1 0.75,-0.75 0.75,0.75 0 0 1 0.75,0.75 z m -3,0 a 0.75,0.75 0 0 1 -0.75,0.75 0.75,0.75 0 0 1 -0.75,-0.75 0.75,0.75 0 0 1 0.75,-0.75 0.75,0.75 0 0 1 0.75,0.75 z m -3,0 a 0.75,0.75 0 0 1 -0.75,0.75 0.75,0.75 0 0 1 -0.75,-0.75 0.75,0.75 0 0 1 0.75,-0.75 0.75,0.75 0 0 1 0.75,0.75 z m 9.25,-3 a 1,1 0 0 1 -1,1 1,1 0 0 1 -1,-1 1,1 0 0 1 1,-1 1,1 0 0 1 1,1 z m -3,0 a 1,1 0 0 1 -1,1 1,1 0 0 1 -1,-1 1,1 0 0 1 1,-1 1,1 0 0 1 1,1 z m -3,0 a 1,1 0 0 1 -1,1 1,1 0 0 1 -1,-1 1,1 0 0 1 1,-1 1,1 0 0 1 1,1 z m -3,0 a 1,1 0 0 1 -1,1 1,1 0 0 1 -1,-1 1,1 0 0 1 1,-1 1,1 0 0 1 1,1 z m 9.25,-3 a 1.25,1.25 0 0 1 -1.25,1.25 1.25,1.25 0 0 1 -1.25,-1.25 1.25,1.25 0 0 1 1.25,-1.25 1.25,1.25 0 0 1 1.25,1.25 z m -3,0 a 1.25,1.25 0 0 1 -1.25,1.25 1.25,1.25 0 0 1 -1.25,-1.25 1.25,1.25 0 0 1 1.25,-1.25 1.25,1.25 0 0 1 1.25,1.25 z m -3,0 a 1.25,1.25 0 0 1 -1.25,1.25 1.25,1.25 0 0 1 -1.25,-1.25 1.25,1.25 0 0 1 1.25,-1.25 1.25,1.25 0 0 1 1.25,1.25 z m -3,0 a 1.25,1.25 0 0 1 -1.25,1.25 1.25,1.25 0 0 1 -1.25,-1.25 1.25,1.25 0 0 1 1.25,-1.25 1.25,1.25 0 0 1 1.25,1.25 z m 9.25,-3 a 1.5,1.5 0 0 1 -1.5,1.5 1.5,1.5 0 0 1 -1.5,-1.5 1.5,1.5 0 0 1 1.5,-1.5 1.5,1.5 0 0 1 1.5,1.5 z m -3,0 a 1.5,1.5 0 0 1 -1.5,1.5 1.5,1.5 0 0 1 -1.5,-1.5 1.5,1.5 0 0 1 1.5,-1.5 1.5,1.5 0 0 1 1.5,1.5 z m -3,0 a 1.5,1.5 0 0 1 -1.5,1.5 1.5,1.5 0 0 1 -1.5,-1.5 1.5,1.5 0 0 1 1.5,-1.5 1.5,1.5 0 0 1 1.5,1.5 z m -3,0 a 1.5,1.5 0 0 1 -1.5,1.5 1.5,1.5 0 0 1 -1.5,-1.5 1.5,1.5 0 0 1 1.5,-1.5 1.5,1.5 0 0 1 1.5,1.5 z"
         style="fill:#241f31"
         transform="rotate(60)" /></g><g
       inkscape:groupmode="layer"
       id="layer3"
       inkscape:label="grid"
       style="display:none"
       sodipodi:insensitive="true"><circle
         cx="64.000031"
         cy="236"
         r="59.504131"
         id="circle2892"
         style="display:inline;opacity:0.1;vector-effect:none;fill:none;fill-opacity:1;stroke:#000000;stroke-width:0.99;stroke-linecap:butt;stroke-linejoin:miter;stroke-miterlimit:4;stroke-dasharray:0.99, 0.99;stroke-dashoffset:0;stroke-opacity:1;marker:none;marker-start:none;marker-mid:none;marker-end:none;paint-order:normal;enable-background:new" /><rect
         ry="7.9292889"
         rx="8.701004"
         y="180.49496"
         x="20.495007"
         height="111.01005"
         width="87.009987"
         id="rect2894"
         style="display:inline;opacity:0.1;vector-effect:none;fill:none;fill-opacity:1;stroke:#000000;stroke-width:0.99;stroke-linecap:butt;stroke-linejoin:miter;stroke-miterlimit:4;stroke-dasharray:0.99, 0.99;stroke-dashoffset:0;stroke-opacity:1;marker:none;marker-start:none;marker-mid:none;marker-end:none;paint-order:normal;enable-background:new" /><rect
         ry="7.9238095"
         rx="7.9238095"
         y="184.49524"
         x="12.495266"
         height="103.00952"
         width="103.00952"
         id="rect2896"
         style="display:inline;opacity:0.1;vector-effect:none;fill:none;fill-opacity:1;stroke:#000000;stroke-width:0.99;stroke-linecap:butt;stroke-linejoin:miter;stroke-miterlimit:4;stroke-dasharray:0.99, 0.99;stroke-dashoffset:0;stroke-opacity:1;marker:none;marker-start:none;marker-mid:none;marker-end:none;paint-order:normal;enable-background:new" /><rect
         ry="8.701005"
         rx="7.9292889"
         y="200.49496"
         x="8.4950066"
         height="87.010048"
         width="111.01004"
         id="rect2898"
         style="display:inline;opacity:0.1;vector-effect:none;fill:none;fill-opacity:1;stroke:#000000;stroke-width:0.99;stroke-linecap:butt;stroke-linejoin:miter;stroke-miterlimit:4;stroke-dasharray:0.99, 0.99;stroke-dashoffset:0;stroke-opacity:1;marker:none;marker-start:none;marker-mid:none;marker-end:none;paint-order:normal;enable-background:new" /><path
         inkscape:connector-curvature="0"
         id="path2900"
         d="M 2.6203015e-5,288.99999 H 128.00003"
         style="display:inline;fill:none;stroke:#62a0ea;stroke-width:2;stroke-linecap:butt;stroke-linejoin:miter;stroke-miterlimit:4;stroke-dasharray:none;stroke-opacity:1;enable-background:new" /></g></g></svg>
