<svg xmlns="http://www.w3.org/2000/svg" width="16" height="16">
    <path d="M2.684 9.777A3.998 3.998 0 0 1 0 6c0-2.2 1.8-4 4-4h3c2.2 0 4 1.8 4 4 0 1.64-.992 3.07-2.422 3.68l-.785-1.84C8.503 7.535 9 6.84 9 6c0-1.125-.875-2-2-2H4c-1.125 0-2 .875-2 2 0 .89.559 1.621 1.34 1.89zm0 0"/>
    <path d="M8 14c-2.2 0-4-1.8-4-4 0-1.621.969-3.031 2.367-3.656l.817 1.828C6.484 8.484 6 9.172 6 10c0 1.125.875 2 2 2h3c1.125 0 2-.875 2-2 0-.867-.531-1.582-1.277-1.867l.714-1.867A3.999 3.999 0 0 1 15 10c0 2.2-1.8 4-4 4zm0 0"/>
</svg>
