<svg xmlns="http://www.w3.org/2000/svg" width="16" height="16">
    <path fill-rule="evenodd" d="M3 0C1.355 0 0 1.355 0 3s1.355 3 3 3 3-1.355 3-3-1.355-3-3-3zm0 2c.563 0 1 .438 1 1s-.438 1-1 1-1-.438-1-1 .438-1 1-1zm10-2c-1.645 0-3 1.355-3 3s1.355 3 3 3 3-1.355 3-3-1.355-3-3-3zm0 2c.563 0 1 .438 1 1s-.438 1-1 1-1-.438-1-1 .438-1 1-1zM3 10c-1.645 0-3 1.355-3 3s1.355 3 3 3 3-1.355 3-3-1.355-3-3-3zm0 2c.563 0 1 .438 1 1s-.438 1-1 1-1-.438-1-1 .438-1 1-1zm10-2c-1.645 0-3 1.355-3 3s1.355 3 3 3 3-1.355 3-3-1.355-3-3-3zm0 2c.563 0 1 .438 1 1s-.438 1-1 1-1-.438-1-1 .438-1 1-1zm0 0"/>
    <path d="M2 5v6h2V5zm10 0v6h2V5zM5 2v2h6V2zm0 10v2h6v-2zm0 0"/>
</svg>
